<?xml version="1.0" standalone="no"?>
<!DOCTYPE svg PUBLIC "-//W3C//DTD SVG 1.1//EN" "http://www.w3.org/Graphics/SVG/1.1/DTD/svg11.dtd" >
<!--
2013-9-30: Created.
-->
<svg>
<metadata>
Created by iconfont
</metadata>
<defs>

<font id="iconfont" horiz-adv-x="1024" >
  <font-face
    font-family="iconfont"
    font-weight="500"
    font-stretch="normal"
    units-per-em="1024"
    ascent="896"
    descent="-128"
  />
    <missing-glyph />
    
    <glyph glyph-name="iconset0497" unicode="&#59256;" d="M768 725.333333 256 725.333333l0-256 512 0L768 725.333333zM725.333333 512 298.666667 512l0 170.666667 426.666667 0L725.333333 512zM768 384 256 384l0-256 512 0L768 384zM725.333333 170.666667 298.666667 170.666667l0 170.666667 426.666667 0L725.333333 170.666667zM554.666667 597.333333l-85.333333 0 0-42.666667 85.333333 0L554.666667 597.333333zM554.666667 256l-85.333333 0 0-42.666667 85.333333 0L554.666667 256zM960 853.333333 64 853.333333C51.2 853.333333 42.666667 844.8 42.666667 832s8.533333-21.333333 21.333333-21.333333l64 0 0-725.333333c0-46.933333 38.4-85.333333 85.333333-85.333333l42.666667 0 0-64c0-12.8 8.533333-21.333333 21.333333-21.333333 12.8 0 21.333333 8.533333 21.333333 21.333333l0 64 426.666667 0 0-64c0-12.8 8.533333-21.333333 21.333333-21.333333 12.8 0 21.333333 8.533333 21.333333 21.333333l0 64 42.666667 0c46.933333 0 85.333333 38.4 85.333333 85.333333L896 810.666667l64 0c12.8 0 21.333333 8.533333 21.333333 21.333333S972.8 853.333333 960 853.333333zM853.333333 85.333333c0-23.466667-19.2-42.666667-42.666667-42.666667L213.333333 42.666667c-23.466667 0-42.666667 19.2-42.666667 42.666667L170.666667 810.666667l682.666667 0L853.333333 85.333333z"  horiz-adv-x="1024" />

    
    <glyph glyph-name="qicheqianlian-" unicode="&#58904;" d="M908.629 152.235h-650.752c-19.285 0-37.376 7.509-50.859 21.163-13.483 13.653-20.992 31.573-20.821 50.859l2.389 479.232c0 19.115-6.656 31.915-39.765 37.205h-0.171l-95.573 16.384c-9.216 1.536-15.531 10.411-13.995 19.627 1.536 9.216 10.411 15.531 19.627 13.995l95.403-16.384c45.397-7.168 68.437-31.061 68.437-70.997l-2.389-479.403c0-10.069 3.755-19.456 10.923-26.453 7.168-7.168 16.555-11.093 26.624-11.093h650.752c9.387 0 17.067-7.68 17.067-17.067s-7.509-17.067-16.896-17.067zM859.989 250.197l-602.624 1.877c-18.944 0.171-36.693 7.509-50.005 20.992s-20.48 31.232-20.48 50.176l1.877 353.963 681.813-50.859c30.891-1.195 55.125-26.283 55.125-57.173v-253.44c0-36.181-29.525-65.536-65.707-65.536zM257.707 286.208l602.453-1.877c17.408 0 31.573 14.165 31.573 31.403v253.44c0 12.459-9.899 22.699-22.357 23.040h-0.683l-645.632 48.128-1.536-317.44c0-9.728 3.755-18.944 10.581-25.941 6.485-6.827 15.701-10.752 25.6-10.752zM260.437 95.915c0-35.158 28.501-63.659 63.659-63.659s63.659 28.501 63.659 63.659c0 0 0 0 0 0 0 35.158-28.501 63.659-63.659 63.659-35.158 0-63.659-28.501-63.659-63.659 0-0 0-0 0-0zM324.096 15.189c-44.544 0-80.725 36.181-80.725 80.725s36.181 80.725 80.725 80.725c44.544 0 80.725-36.181 80.725-80.725s-36.181-80.725-80.725-80.725zM324.096 142.507c-25.771 0-46.592-20.821-46.592-46.592s20.821-46.592 46.592-46.592 46.592 20.821 46.592 46.592-20.821 46.592-46.592 46.592zM749.056 95.915c-0-0.002-0-0.005-0-0.008 0-35.158 28.501-63.659 63.659-63.659 35.158 0 63.659 28.501 63.659 63.659 0 0.003-0 0.006-0 0.008 0 0.002 0 0.005 0 0.008 0 35.158-28.501 63.659-63.659 63.659-35.158 0-63.659-28.501-63.659-63.659 0-0.003 0-0.006 0-0.008zM812.715 15.189c-44.544 0-80.725 36.181-80.725 80.725s36.181 80.725 80.725 80.725 80.725-36.181 80.725-80.725-36.181-80.725-80.725-80.725zM812.715 142.507c-25.771 0-46.592-20.821-46.592-46.592s20.821-46.592 46.592-46.592 46.592 20.821 46.592 46.592-20.821 46.592-46.592 46.592zM710.315 478.037h-347.819c-9.387 0-17.067 7.68-17.067 17.067s7.68 17.067 17.067 17.067h347.819c9.387 0 17.067-7.68 17.067-17.067s-7.68-17.067-17.067-17.067zM710.315 379.904h-347.819c-9.387 0-17.067 7.68-17.067 17.067s7.68 17.067 17.067 17.067h347.819c9.387 0 17.067-7.68 17.067-17.067s-7.68-17.067-17.067-17.067z"  horiz-adv-x="1024" />

    
    <glyph glyph-name="huiyuan" unicode="&#58907;" d="M923.111577 424.272961L542.056554 43.217939a37.659593 37.659593 0 0 0-53.260778 0L107.729465 424.272961a37.659593 37.659593 0 0 0 0 53.260779L314.958824 684.740522h400.979837l207.172916-207.206782a37.659593 37.659593 0 0 0 0-53.260779zM778.10634 476.65321a28.222117 28.222117 0 0 1-33.86654 21.132721l-39.081988-9.031078a28.086651 28.086651 0 0 1-12.677375-6.671708 28.425316 28.425316 0 0 1-2.325502-2.325502L517.762956 284.878281a3.91723 3.91723 0 0 0-4.684871 0L340.674817 479.746354a29.351002 29.351002 0 0 1-15.048032 9.031077l-39.081988 9.031078a28.222117 28.222117 0 0 1-12.733819-54.987973l30.412153-7.032952 167.436175-189.268804q0.575731-0.643464 1.128885-1.253062a60.293731 60.293731 0 0 1 85.16306 0q0.609598 0.609598 1.128884 1.253062l167.549064 189.257516 30.34442 7.021662a28.222117 28.222117 0 0 1 21.132721 33.855252z"  horiz-adv-x="1024" />

    
    <glyph glyph-name="anquan" unicode="&#58953;" d="M519.217067-42.666667h-14.1664c-5.207467 0.714667-10.432 1.319467-15.618134 2.158934-28.074667 4.538667-54.257067 14.6656-79.458133 27.451733-49.3376 25.032533-92.8512 58.0896-132.010667 96.973867-37.186133 36.923733-69.034667 77.874133-92.366933 125.032533-18.9312 38.264533-30.763733 78.3232-30.711467 121.489067 0.1408 117.082667 0.048 234.1664 0.048 351.248v4.2656c0.673067 0.3424 0.8992 0.542933 1.143467 0.567466 1.242667 0.122667 2.487467 0.264533 3.733333 0.2848 32.517333 0.510933 64.865067 2.638933 96.916267 8.6592 30.717867 5.770667 60.962133 13.2288 90.132267 24.498134 39.92 15.4208 78.074667 34.5408 114.917333 56.283733 17.450667 10.2976 34.298667 21.489067 49.941333 34.4192h0.833067c1.264-1.056 2.4992-2.1472 3.7952-3.162667 27.966933-21.9136 58.5792-39.581867 90.1248-55.672533 41.3216-21.077333 83.754667-39.370667 129.111467-50.1184 23.504-5.570133 47.191467-10.130133 71.285333-11.995733 16.5952-1.285333 33.253333-1.748267 49.883733-2.576 4.100267-0.203733 8.200533-0.394667 12.584534-0.6048v-5.045334c0-116.916267 0.026667-233.8336-0.0544-350.750933-0.0064-8.869333-0.3008-17.793067-1.277867-26.600533-3.346133-30.1824-12.336-58.7936-25.047467-86.2784-18.203733-39.362133-42.565333-74.673067-71.3056-106.984534-48.586667-54.6272-104.654933-99.552-171.2608-130.555733-19.530667-9.0912-39.777067-16.199467-61.053866-20.0128-6.669867-1.194667-13.410133-1.9936-20.1184-2.973867m-305.056 669.566934v-3.0176c0.001067-99.582933-0.1216-199.166933 0.170666-298.7488 0.033067-11.4304 1.557333-23.019733 3.8112-34.248534 6.596267-32.852267 21.284267-62.357333 39.643734-90.059733 36.855467-55.610667 84.149333-100.8928 138.8448-138.647467 25.301333-17.464533 51.899733-32.609067 81.282133-42.283733 15.733333-5.178667 31.7056-7.838933 48.321067-4.658133 22.333867 4.274133 42.846933 13.249067 62.631466 24.010666 42.629333 23.189333 80.4672 52.7968 114.7584 86.9888 32.036267 31.944533 59.9616 67.038933 80.283734 107.7088 14.677333 29.3728 24.090667 60.120533 24.048 93.392-0.125867 98.469333-0.0448 196.9408-0.043734 295.412267v4.337067c-14.0352 2.109867-27.5008 3.911467-40.885333 6.192-37.546667 6.397867-74.24 16.0512-109.6384 30.196266-49.7024 19.860267-97.207467 44.0992-142.4896 72.6528-2.0864 1.3152-3.554133 1.2608-5.591467-0.023466-33.611733-21.192533-68.836267-39.348267-104.928-55.909334-45.578667-20.9152-92.920533-36.264533-142.2144-45.4528-15.793067-2.945067-31.713067-5.201067-48.004266-7.841066M670.4672 507.5456l54.144-46.865067L492.343467 193.024 340.285867 322.1632l46.837333 55.159467c32.586667-27.373867 65.041067-54.64 97.928533-82.267734 61.810133 70.834133 123.4752 141.506133 185.415467 212.490667"  horiz-adv-x="1024" />

    
    <glyph glyph-name="shang" unicode="&#58906;" d="M509.928 508.841c7.241 7.99 17.58 7.897 24.782-0.334l270.569-309.222c7.759-8.867 21.236-9.765 30.103-2.007 8.867 7.759 9.765 21.236 2.007 30.103l-270.569 309.222c-24 27.429-64.127 27.792-88.507 0.889l-280.786-309.833c-7.912-8.73-7.248-22.222 1.482-30.133 8.73-7.912 22.222-7.248 30.133 1.482l280.786 309.833z"  horiz-adv-x="1024" />

    
    <glyph glyph-name="zuoyou" unicode="&#58913;" d="M372.571 397.035l248.432 248.432c3.976 3.976 9.467 6.434 15.534 6.434 12.133 0 21.97-9.836 21.97-21.97 0-6.067-2.459-11.558-6.434-15.534l-235.401-235.401 227.844-227.885c3.627-3.751 5.861-8.867 5.86-14.506 0-11.531-9.349-20.881-20.881-20.881-5.637 0-10.754 2.235-14.512 5.867l-236.231 236.231c-2.857 2.906-4.858 6.665-5.59 10.857 0.453-2.922-0.173-3.298-0.593-2.673-3.964 3.973-6.413 9.457-6.414 15.515 0 6.056 2.452 11.542 6.414 15.515z"  horiz-adv-x="1024" />

    
    <glyph glyph-name="dizhi" unicode="&#58943;" d="M488.609 45.684c5.696-9.028 15.632-14.542 26.297-14.542 10.664 0 20.601 5.514 26.296 14.542 1.151 1.878 119.122 189.65 168.685 240.364 59.197 60.591 127.059 144.388 127.059 255.452 0 177.592-144.449 322.041-322.041 322.041S192.865 719.092 192.865 541.5c0-111.063 67.862-194.861 126.999-255.391 49.563-50.775 167.594-238.547 168.745-240.425z m26.297 755.811c143.358 0 259.996-116.638 259.996-259.996 0-88.16-55.32-156.688-109.367-212.068-39.202-40.172-111.669-149.296-150.629-209.645-38.96 60.349-111.487 169.473-150.629 209.645C310.23 384.811 254.91 453.34 254.91 541.5c0 143.358 116.638 259.995 259.996 259.995zM728.125 226.972c-16.784 3.999-33.507-5.938-37.688-22.54-4.12-16.663 5.938-33.507 22.54-37.688 98.763-24.782 143.782-62.712 143.782-87.433 0-44.958-134.027-110.215-343.975-110.215-210.008 0-344.035 65.256-344.035 110.215 0 24.115 43.444 61.379 138.753 86.16 16.602 4.363 26.539 21.267 22.237 37.869-4.302 16.481-21.086 26.478-37.869 22.237-117.668-30.659-185.166-83.919-185.166-146.267 0-111.911 209.221-172.26 406.081-172.26 196.799 0 406.02 60.349 406.02 172.26 0 63.38-69.497 117.185-190.68 147.662zM517.027 376.753c91.432 0 165.837 74.406 165.837 165.837s-74.406 165.837-165.837 165.837-165.838-74.405-165.838-165.837 74.406-165.837 165.838-165.837z m0 269.63c57.258 0 103.792-46.534 103.792-103.792s-46.534-103.792-103.792-103.792-103.793 46.533-103.793 103.791 46.534 103.793 103.793 103.793z"  horiz-adv-x="1024" />

    
    <glyph glyph-name="shouhou" unicode="&#58973;" d="M905.792 707.968h-166.784a17.28 17.28 0 0 1 0-34.432h166.784a17.28 17.28 0 0 0 17.216-17.216V-19.2a17.28 17.28 0 0 0-17.216-17.216H138.752a17.28 17.28 0 0 0-17.216 17.216V656.384a17.28 17.28 0 0 0 17.216 17.216h166.848a17.28 17.28 0 0 1 0 34.432H138.752a51.648 51.648 0 0 1-51.584-51.584v-675.52c0-28.416 23.104-51.584 51.584-51.584h767.04a51.648 51.648 0 0 1 51.584 51.584V656.384a51.648 51.648 0 0 1-51.584 51.584zM425.792 673.6h114.496a17.28 17.28 0 0 1 0 34.368H425.792a17.28 17.28 0 0 1 0-34.368zM581.824 701.376a14.4 14.4 0 0 0 4.864-10.624c0-3.968-1.728-7.68-4.928-10.624L504.64 609.344a17.216 17.216 0 1 1 23.296-25.28l77.12 70.848a48.448 48.448 0 0 1 0 71.808L527.872 797.504a17.216 17.216 0 1 1-23.296-25.28l77.248-70.848zM480.768 360.192H399.68a17.28 17.28 0 0 1 0-34.432h105.408v-69.568H399.68a17.28 17.28 0 0 1 0-34.432h105.408v-107.392a17.28 17.28 0 0 1 34.432 0v107.392h110.72a17.28 17.28 0 0 1 0 34.432H539.52V325.824h110.72a17.28 17.28 0 0 1 0 34.432H563.84l98.56 98.56a17.216 17.216 0 1 1-24.32 24.32l-115.84-115.84-115.712 115.776a17.216 17.216 0 1 1-24.32-24.32l98.56-98.56z"  horiz-adv-x="1024" />

    
    <glyph glyph-name="gouwuchekong" unicode="&#58880;" d="M332.8 105.47199999999998q19.456 0 36.864-7.168t30.208-19.968 20.48-30.208 7.68-36.864-7.68-36.864-20.48-30.208-30.208-20.48-36.864-7.68q-20.48 0-37.888 7.68t-30.208 20.48-20.48 30.208-7.68 36.864 7.68 36.864 20.48 30.208 30.208 19.968 37.888 7.168zM758.784 103.42399999999998q19.456 0 37.376-7.168t30.72-19.968 20.48-30.208 7.68-36.864-7.68-36.864-20.48-30.208-30.72-20.48-37.376-7.68-36.864 7.68-30.208 20.48-20.48 30.208-7.68 36.864 7.68 36.864 20.48 30.208 30.208 19.968 36.864 7.168zM930.816 685.056q28.672 0 44.544-7.68t22.528-18.944 6.144-24.064-3.584-22.016-13.312-37.888-22.016-62.976-23.552-68.096-18.944-53.248q-13.312-40.96-33.28-56.832t-49.664-15.872l-35.84 0-65.536 0-86.016 0-96.256 0-253.952 0 14.336-92.16 517.12 0q49.152 0 49.152-41.984 0-20.48-9.728-35.84t-38.4-14.336l-49.152 0-94.208 0-118.784 0-119.808 0-99.328 0-55.296 0q-20.48 0-34.304 9.216t-23.04 24.064-14.848 32.256-8.704 32.768q-1.024 6.144-5.632 29.696t-11.264 58.88-14.848 78.848-16.384 87.552q-19.456 103.424-44.032 230.4l-76.8 0q-15.36 0-25.6 7.68t-16.896 18.432-9.216 23.04-2.56 22.528q0 20.48 13.824 33.792t37.376 12.288l103.424 0q20.48 0 32.768-6.144t19.456-15.36 10.24-18.944 5.12-16.896q2.048-8.192 4.096-23.04t4.096-30.208q3.072-18.432 6.144-38.912l700.416 0zM892.928 593.9200000000001l-641.024 2.048 35.84-185.344 535.552-1.024z"  horiz-adv-x="1028" />

    
    <glyph glyph-name="tuikuan" unicode="&#58927;" d="M1011.11521 476.324502l-2.49407 2.05736c-10.519383 8.46326-25.921749 6.801784-34.363977-3.796776l-41.898147-52.496706c-1.3658 20.286586-4.054101 40.711731-8.3247 61.217291C871.775141 735.942821 625.938537 898.04004 375.012348 845.444363 124.036674 792.809098-37.03372 545.391432 15.236589 292.795108c52.269073-252.658181 298.094542-414.754164 549.050422-362.099104 91.232728 19.119965 169.651183 64.717153 231.007033 126.348885 0.236293 0.196705 0.473824 0.394647 0.69156 0.651971 1.087444 1.107238 5.280104 6.167132 6.32796 7.353547 2.531184 2.849128 5.041337 6.783227 4.74566 12.97139-0.731148 15.086896-13.565216 24.893687-24.36048 27.523842-11.705798 2.847891-23.727066-6.9589-26.889191-11.072383-55.71945-55.856772-114.643087-93.385348-197.411318-110.727546-227.248608-47.673106-443.673497 83.816087-490.998967 312.567817-47.346501 228.771525 90.361783 447.753578 317.630185 495.425447 227.228814 47.633517 442.91142-91.765934 490.226993-320.517665a437.117904 437.117904 0 0 0 7.612109-52.556089l-50.777084 41.04947c-10.540414 8.46326-25.921749 6.781989-34.346657-3.815333-8.481817-10.59856-6.780752-29.066553 3.737393-37.587958 0.06062-0.059383 1.838387-1.621888 1.899007-1.621888l92.062847-74.02909 2.411182-1.897769c5.339487-4.307714 13.958626-9.945351 20.246997-9.174614 6.347754 0.651972 14.731837 9.412144 19.022231 14.789983 0.021031 0.059383 1.542711 1.818593 1.542711 1.818592l74.02909 93.32844c0.022268 0-0.374853-0.791768-0.335265-0.75218 8.459548 10.619591 9.272348 27.030224-1.245797 35.551629zM469.101628-81.703829c-105.58229 0-209.312584 36.89145-292.08329 103.879988-41.231329 33.369318-76.217586 73.127216-103.990093 118.172641-28.741186 46.61659-49.000555 97.737599-60.213972 151.94403C-0.029691 354.362508-0.411967 417.106426 11.678581 478.785169c11.678581 59.573134 34.44068 115.64888 67.655356 166.670918S154.543256 739.873208 204.152482 774.438838c51.362251 35.787923 108.677608 60.492328 170.35264 73.427841 31.522272 6.607553 63.687855 9.957722 95.601062 9.957722 105.594661 0 209.338564-36.893924 292.122877-103.884936 41.238752-33.370555 76.231195-73.132165 104.007414-118.178827 28.746134-46.620301 49.00674-97.745022 60.221394-151.953926 3.727496-17.896436 6.37992-36.451029 7.902836-55.245627l37.964049 47.566712a26.723414 26.723414 0 0 0 21.009074 10.123499c6.096615 0 12.076939-2.110557 16.83992-5.941973l2.516338-2.077154c12.261273-9.93298 10.385772-27.98282 1.605805-39.00077l-0.158354-0.180622-0.733622-0.757128h-0.11258l-72.686795-91.636035c-0.059383-0.072991-0.964967-1.117135-1.358377-1.586011l-0.188045-0.236293c-2.768714-3.471409-12.444369-14.860499-20.703502-15.707939a12.096734 12.096734 0 0 0-1.457348-0.084126c-7.357259 0-16.06176 6.136204-20.59587 9.794421l-2.388913 1.880449-91.963877 73.949913c-0.494855 0.319182-1.160435 0.865996-2.116743 1.797561-11.445999 9.371319-13.409337 29.249649-4.019461 40.981427a26.688774 26.688774 0 0 0 21.000415 10.132159c6.086718 0 12.062094-2.108083 16.827548-5.933313l46.239263-37.381356a436.829651 436.829651 0 0 1-7.045499 46.455762C832.903033 663.758304 668.884539 798.576634 473.967291 798.576634c-29.373363 0-59.12529-3.115113-88.431848-9.258739C161.086478 742.238615 22.408277 525.905274 69.820347 296.815805 109.45948 105.219035 268.582619-23.503917 465.777438-23.495257c30.561015 0.001237 61.552555 3.252435 92.111096 9.663283 76.504602 16.029595 135.149883 48.916429 196.060364 109.945675 3.261095 4.141937 13.299232 12.418389 24.411203 12.418389 1.68127 0 3.337798-0.195468 4.922572-0.581455 12.472823-3.03841 25.493699-14.253065 26.248353-29.808835 0.352584-7.39561-2.894902-11.950751-5.367941-14.734312-0.361244-0.409493-1.117135-1.30518-1.986844-2.334479-2.017772-2.388913-3.627288-4.284208-4.365859-5.049996a7.172925 7.172925 0 0 0-0.843728-0.805377c-64.464777-64.725813-144.747599-108.621937-232.171179-126.942711-31.554437-6.621162-63.750949-9.978754-95.693847-9.978754z m1.003318 934.579679c-31.572994 0-63.39589-3.315529-94.585371-9.852565C126.287028 790.752975-34.248923 544.146871 17.658905 293.296148 62.017719 78.874185 251.87631-76.755277 469.100391-76.755277c31.602685 0 63.457747 3.321715 94.676919 9.871122 86.515522 18.131492 165.964512 61.588432 229.761235 125.673408l0.173199 0.157116a3.525843 3.525843 0 0 1 0.383513 0.346399l0.124951 0.136085c0.635889 0.647023 2.682115 3.068102 4.17534 4.835972 0.901873 1.06765 1.684982 1.993029 2.064783 2.422316 2.062309 2.322108 4.391839 5.690834 4.127092 11.214654-0.635889 13.128506-11.787449 22.634673-22.475083 25.237611a15.892272 15.892272 0 0 1-3.751002 0.440421c-9.482661 0-18.411085-7.782834-20.590921-10.617116l-0.210314-0.238768c-60.85852-61.009451-122.127771-95.36848-198.655878-111.401786-30.892568-6.481365-62.225558-9.76844-93.126787-9.76844-47.508566-0.002474-93.886389 7.647986-137.845606 22.736119-43.492817 14.929779-83.583505 36.777633-119.157403 64.934889C134.568429 117.962792 84.844148 199.773478 64.974478 295.812487 17.001985 527.612525 157.362693 746.512927 384.518515 794.162527c29.639348 6.212906 59.733962 9.363896 89.447539 9.363896 47.722591 0 94.441864-7.990673 138.863771-23.750572 43.704368-15.506285 84.089494-38.129825 120.032059-67.242152 36.282778-29.388209 67.071427-64.615708 91.511084-104.703921 25.25988-41.435457 43.19343-87.228113 53.304557-136.104954a441.827687 441.827687 0 0 0 7.655409-52.851765l0.481246-5.768773-55.279028 44.689129c-3.940284 3.163361-8.687182 4.838446-13.72357 4.838446a21.774863 21.774863 0 0 1-17.131885-8.269029c-7.697471-9.617509-6.032284-26.519286 3.357592-34.12521l0.174437-0.154642c0.101445-0.090311 0.791768-0.694034 1.24456-1.081258l94.928059-76.291815c6.77333-5.464438 13.311603-8.715636 17.511686-8.715636 0.30681 0 0.608672 0.01732 0.90311 0.053197 4.753083 0.489907 12.109105 7.275607 17.336013 13.810169 0.242479 0.32413 0.698983 0.851151 1.659001 1.960864l75.51613 95.206415c5.617843 9.243894 5.963004 22.317966-2.753869 29.379548l-2.510153 2.072206a21.687026 21.687026 0 0 1-13.714909 4.829786 21.798368 21.798368 0 0 1-17.139308-8.260369l-45.874307-57.477423-0.42805 6.357651c-1.396729 20.720821-4.181526 41.202875-8.278926 60.878315C877.254424 697.237727 687.368615 852.87585 470.104946 852.87585zM650.318812 363.878572v0.235056c14.040277 0 25.527102 11.478165 25.527102 25.64463 0 14.128114-11.486825 25.586484-25.527102 25.586484H496.368145v47.128765L648.935692 612.113986l-0.159591 0.186808c10.578765 9.381216 11.547444 25.556793 2.155094 36.154115-9.410907 10.608457-25.56669 11.51899-36.10463 2.164991l-143.540152-141.491452-150.945659 148.256122c-10.597323 9.402247-26.771662 8.413774-36.144218-2.184786-9.372556-10.539177-8.413774-26.722177 2.155094-36.084835l-0.148457-0.188045 158.726019-155.24595v-48.334975H290.998319v-0.117528c-14.088525 0-25.546896-11.459608-25.546895-25.596381 0-14.167702 11.457133-25.634733 25.546895-25.634733v-0.117528h153.930873v-79.093932H290.998319v-0.138559c-14.088525 0-25.576587-11.485587-25.576587-25.585247 0-14.118217 11.486825-25.62731 25.576587-25.62731v-0.117528h153.930873v-151.993515h0.117528c0-14.03904 11.478165-25.527102 25.606279-25.527102 14.126877 0 25.576587 11.468268 25.576587 25.527102h0.138559v151.994752h153.912316v0.256087c14.078628 0 25.565453 11.548681 25.565453 25.605042 0 14.198631-11.486825 25.606278-25.565453 25.606278h-153.912316v79.092695h153.950667zM470.652999 53.323578c-14.647712 0-26.711043 11.241871-27.971686 25.527102h-0.108869l-0.117528 2.474275V230.844194H288.524044v0.226397c-14.312447 1.259406-25.576587 13.332634-25.576587 27.992717 0 14.637815 11.262903 26.693723 25.576587 27.950655v0.247427h153.930872v74.145381H288.524044v0.226396c-14.296365 1.260643-25.546896 13.337583-25.546896 28.00014 0 14.642763 11.250531 26.70362 25.546896 27.963026v0.108868l2.474275 0.117528h151.456597V462.642995L282.880221 618.715353l0.13856 0.174437c-4.583596 4.787723-7.294165 10.982072-7.692523 17.678699-0.44537 7.482209 2.047463 14.682352 7.020757 20.275452a28.079317 28.079317 0 0 0 21.018971 9.47029c6.859929 0 13.472431-2.513864 18.61645-7.078903l0.091548-0.085362 149.208718-146.550109 141.900944 139.873276a28.006326 28.006326 0 0 0 18.60779 7.071479 28.083028 28.083028 0 0 0 20.990517-9.445547c9.731326-10.980835 9.294616-27.517656-0.617332-37.959099l0.149694-0.175674-153.471894-150.528743v-43.615294h151.476391c15.43948 0 28.001377-12.587877 28.001377-28.06076 0-14.667506-11.241871-26.748157-25.527102-28.011274v-0.343925H498.842421v-74.144143h151.43804c15.460511 0 28.039729-12.597774 28.039728-28.080554 0-14.648949-11.259191-26.713517-25.565453-27.970449v-0.364956h-153.912315v-151.993514h-0.247428c-1.259406-14.28523-13.310366-25.527102-27.941994-25.527102z m-23.249531 30.474416l0.117528-2.474276c0-12.710354 10.377112-23.052826 23.132003-23.052826 12.738808 0 23.102312 10.341235 23.102311 23.052826v2.474276h0.13856v151.994752h153.912315v0.256087h2.474276c12.732622 0 23.091177 10.377112 23.091177 23.130766 0 12.756128-10.358555 23.132003-23.091177 23.132003h-156.386591v84.041246h153.950666v0.235056h2.474276c12.710354 0 23.052826 10.394432 23.052826 23.170354 0 12.743757-10.341235 23.112209-23.052826 23.112209H493.89387v50.642236l151.661961 148.752214-0.236293 0.278356 1.814881 1.608279c9.538333 8.458311 10.410515 23.110972 1.944781 32.661675a23.132003 23.132003 0 0 1-17.287764 7.78036c-5.630214 0-11.052589-2.053649-15.276178-5.782382L471.28765 505.655803 318.653298 655.574637a23.087466 23.087466 0 0 1-15.287312 5.791042 23.127054 23.127054 0 0 1-17.316218-7.805102 22.901895 22.901895 0 0 1-5.783619-16.697649 22.911792 22.911792 0 0 1 7.725926-15.895984l1.751787-1.551371-0.218974-0.277119L447.403468 464.721387v-51.849683H293.472595l-2.474276-0.117528c-12.722725 0-23.07262-10.372163-23.07262-23.122106 0-12.770974 10.349895-23.160457 23.07262-23.160457h2.474276v-0.117528h153.930873v-84.042483H293.472595v-0.13856h-2.474276c-12.738808 0-23.102312-10.367215-23.102311-23.110971 0-12.766025 10.363503-23.153034 23.102311-23.153034h2.474276v-0.117529h153.930873v-151.993514z"  horiz-adv-x="1024" />

    
    <glyph glyph-name="fangdajing" unicode="&#58903;" d="M947.51-2.852L726.787 217.87c55.155 64.57 88.412 148.274 88.412 239.653 0 203.736-165.772 369.508-369.508 369.508S76.183 661.259 76.183 457.523s165.772-369.61 369.508-369.61c91.38 0 175.084 33.359 239.653 88.412l220.723-220.723c5.73-5.73 13.2-8.595 20.772-8.595 7.47 0 15.042 2.865 20.773 8.595 11.358 11.563 11.358 30.085-0.102 41.546zM134.818 457.523c0 171.4 139.473 310.874 310.873 310.874s310.874-139.474 310.874-310.874c0-171.4-139.474-310.874-310.874-310.874S134.818 286.123 134.818 457.523z"  horiz-adv-x="1024" />

    
    <glyph glyph-name="zuoyou-copy" unicode="&#59232;" d="M495.12577047 203.50399654l-321.60364185 321.60364183c-5.14699984 5.14699984-8.32984318 12.25679833-8.32984318 20.11070866 0 15.70714171 12.73341011 28.44055183 28.44055184 28.44055183 7.85391034 0 14.96370882-3.18352226 20.11070866-8.32984318l304.73688058-304.73688057 295.00639626 294.95208151c4.85573709 4.69482969 11.47941872 7.58776814 18.7779609 7.58776814 14.92840424 0 27.03040558-12.10200136 27.03040559-27.03040559 0-7.29922111-2.89293844-13.92222382-7.59455748-18.78542919l-305.81095441-305.81095442c-3.76401097-3.69815435-8.62789525-6.28828817-14.05597386-7.23608025 3.78370006 0.58659911 4.27117478-0.22404827 3.46052741-0.76515878-5.14360516-5.13138436-12.24254073-8.30472261-20.08355131-8.30472262-7.84033165 0-14.93994612 3.17333825-20.08355129 8.30540156z"  horiz-adv-x="1024" />

    
    <glyph glyph-name="baozheng" unicode="&#58970;" d="M561.702924-89.674854c-73.805848 0-173.511111 50.301754-260.34152 130.994152-95.214035 88.477193-149.707602 192.224561-149.707603 283.995322V701.978947c0 13.773099 11.22807 25.450292 25.450293 25.450293l38.025731 0.449123c3.443275 0 82.788304 2.245614 164.378947 34.881871 50.750877 19.461988 99.106433 44.31345 144.018713 73.955555L546.432749 852.884211c4.34152 3.293567 9.730994 4.940351 15.270175 4.94035 5.688889 0 10.778947-1.796491 15.270175-4.94035l22.755556-16.018714c2.245614-1.796491 57.787135-40.421053 143.419883-73.955555 52.247953-20.360234 107.939181-32.187135 164.378947-34.881872l38.025731-0.449123c14.222222 0 25.6-11.677193 25.6-25.450292v-376.814035c0-92.369591-54.493567-195.518129-149.707602-283.995322-85.632749-81.291228-185.487719-130.994152-259.74269-130.994152zM204.350877 324.715789c0-77.847953 48.804678-167.97193 133.239766-247.017543 74.853801-69.614035 164.977778-116.472515 224.112281-116.472515 58.984795 0 149.108772 46.85848 224.112281 116.472515 85.033918 79.045614 133.239766 169.019883 133.239766 247.017543v351.812866h-12.425731c-62.877193 2.994152-124.85614 16.018713-183.242105 38.624561-54.493567 21.108772-106.14269 47.906433-154.198831 79.94386l-7.335672 5.539181-7.335673-5.539181c-2.395322-1.646784-62.42807-43.71462-154.348538-80.093567-90.722807-35.929825-179.79883-38.175439-183.242105-38.774269h-12.425731v-351.513451h-0.149708z m311.391813-107.490058c-7.934503-0.149708-15.419883 3.14386-20.959064 8.683041L380.25731 344.477193c-5.539181 5.838596-8.683041 13.623392-8.533333 21.557895 0 8.233918 2.694737 15.719298 8.533333 21.557894 5.539181 5.688889 13.024561 8.982456 20.959064 8.832749 7.934503 0 15.270175-2.994152 20.959065-8.832749l93.567251-96.261988 208.093567 214.231579c5.539181 5.688889 13.024561 8.832749 20.959065 8.683041 8.084211 0 15.419883-2.844444 20.959064-8.683041 11.377778-12.126316 11.377778-30.989474 0-43.265497l-229.052632-235.789474c-5.389474-5.688889-12.874854-9.132164-20.959064-9.281871z m0 0"  horiz-adv-x="1122" />

    
    <glyph glyph-name="-" unicode="&#58974;" d="M780.8 776.32H243.2A178.56 178.56 0 0 1 64 599.04v-390.4a178.56 178.56 0 0 1 179.2-176.64h537.6a178.56 178.56 0 0 1 179.2 177.28V599.04a178.56 178.56 0 0 1-179.2 177.28z m107.52-282.88h-67.84v-35.84h67.84v-248.32a106.88 106.88 0 0 0-107.52-106.24H243.2a106.88 106.88 0 0 0-107.52 106.24V457.6h174.08v36.48H135.68V599.04A106.88 106.88 0 0 0 243.2 704h537.6a106.88 106.88 0 0 0 107.52-106.24zM403.008 278.336l113.92 153.728 29.312-21.76-113.92-153.728zM592.192 409.6l27.072 24.512 139.264-153.6-27.008-24.512zM375.68 357.12c-48 0-82.56 39.04-86.4 98.56S310.4 571.52 359.04 576a240.64 240.64 0 0 0 174.08-64l5.76-5.12v-80.64l-4.48-5.12a220.16 220.16 0 0 0-154.88-64z m-14.08 181.76c-21.76 0-39.04-39.68-36.48-80.64 0-16 7.68-64 52.48-64a192 192 0 0 1 124.16 46.72v49.92a199.68 199.68 0 0 1-140.8 48zM768 357.12h-3.84a220.16 220.16 0 0 0-154.88 64l-7.68 5.12V506.24L607.36 512a238.08 238.08 0 0 0 174.72 64c48-3.84 72.96-64 69.12-119.04s-38.4-99.84-83.2-99.84z m-128 83.2a192 192 0 0 1 124.16-46.72c44.16 0 51.2 49.28 52.48 64 0 40.96-14.08 78.72-36.48 80.64a200.32 200.32 0 0 1-140.8-48zM567.04 400a64 64 0 0 0-60.16 64 60.16 60.16 0 1 0 120.32 0 64 64 0 0 0-60.16-64z m0 98.56a30.72 30.72 0 0 1-28.16-33.28 30.72 30.72 0 0 1 28.16-33.28 30.72 30.72 0 0 1 28.16 33.28 30.72 30.72 0 0 1-28.16 32.64z"  horiz-adv-x="1024" />

    
    <glyph glyph-name="qian-copy" unicode="&#58955;" d="M1008.417137 628.3512500100001L554.921689 64.52458000000001a58.236687 58.236687 0 0 0-90.653592 1e-8L13.16126401 625.962636a58.122943 58.122943 0 0 0 90.53984799 72.795858l405.836909-505.02126599 408.339267 507.52362399a58.122943 58.122943 0 1 0 90.539849-72.795858z"  horiz-adv-x="1024" />

    
    <glyph glyph-name="wangyi" unicode="&#58982;" d="M341.79584 196.34176c-29.97248-9.87648-19.968-29.62432-19.968-29.62432 19.968-79.02208 259.6352 108.64128 269.63456 138.29632 9.96864 29.6192-19.96288 19.74784-19.96288 19.74784-139.75552-118.48704-229.6064-128.41984-229.70368-128.41984zM512-123.97056C231.44448-123.97056 4.03456 103.43936 4.03456 384 4.03456 664.55552 231.44448 891.96544 512 891.96544c280.56064 0 507.97056-227.40992 507.97056-507.96544 0-280.56064-227.40992-507.97056-507.97056-507.97056zM490.3168 421.30432c40.73472 2.19136 81.18272 2.22208 81.18272 2.22208 89.87648-9.87648 89.87648 59.27424 89.87648 59.27424V532.1728c0 39.49056-29.97248 88.89344-119.81824 88.89344-89.87648 0-109.84448-9.87136-109.84448-9.87136-39.94112-9.87648-29.97248-29.62432-29.97248-29.62432 9.99936-19.74784 39.936-9.87136 39.936-9.87136 59.90912 19.74272 119.81824 9.87136 119.81824 9.87136 59.904 0 59.904-49.39776 59.904-49.39776v-49.37216c0-29.62432-29.96736-29.62432-29.96736-29.62432H421.67808c-29.97248 0-29.97248 29.62432-29.97248 29.62432V551.94624c0 19.74784-19.968 19.74784-19.968 19.74784-19.968 0-19.968-19.74784-19.968-19.74784V463.0528c9.99936-49.39776 69.90848-49.39776 69.90848-49.39776 6.7584 1.68448 15.58528 3.08224 25.5232 4.224-12.63616-14.7968-52.63872-53.59104-125.37344-53.59104 0 0-29.97248 0-29.97248-19.74272 0 0 0-19.74784 29.97248-19.74784 29.65504-0.07168 127.78496 19.38944 168.48896 96.50688z m-136.51456-220.99456l-4.15744-1.37216c1.64352 0.512 3.13856 1.01888 4.15744 1.37216z m187.7248 213.30944s-19.968 0-19.968-19.74272c0 0 0.06656-4.60288 2.28352-9.3696-0.768-0.13312-1.53088-0.3072-2.28352-0.50688-129.81248-118.51264-199.72608-108.6464-199.72608-108.6464-19.968 0-19.968-19.74272-19.968-19.74272 9.99936-79.02208 229.66272 79.02208 239.6672 108.64128a30.06976 30.06976 0 0 1 1.81248 9.84576c10.73152-0.28672 71.68512-3.52256 108.04224-39.46496 39.936-39.49568-9.99936-128.38912-79.87712-138.2912 0 0-29.97248 0-39.94624 19.74272 0 0-19.968 9.87648-19.968-9.87648 0 0 0-59.27424 49.93536-59.27424 49.94048 0 139.82208 39.5008 149.79072 148.16768-0.03584 0.00512-0.03584 118.51776-169.79456 118.51776z m9.96864 88.89344s29.97248 0 29.97248 19.74784c0 0 0 19.74784-29.97248 19.74784H451.64544s-29.97248 0-29.97248-19.74784c0 0 0-19.74784 29.97248-19.74784h99.85024z"  horiz-adv-x="1024" />

    
    <glyph glyph-name="tupian" unicode="&#58987;" d="M948.9 106.2H74.8V773.3h874.1v-667.1z m-834.1 40h794.1V733.3H114.8v-587.1zM958.9 96.2H64.8V783.3h894.1v-687.1z m-874.1 20h854.1V763.3H84.8v-647.1z m834.1 20H104.8V743.3h814.1v-607.1z m-794.1 20h774.1V723.3H124.8v-567.1zM265.3 236.6c-60.7 0-122.8 32.7-184.9 97.6l28.9 27.7c63.4-66.3 124.5-94.1 181.4-82.7 54.8 10.9 95 55.9 119 82.8 3.5 3.9 6.8 7.6 9.8 10.9 48.8 52.4 111.3 78 185.6 76.1 44.1-1.1 93.2-12 146-32.5 57.4-22.2 121-56.4 188.9-101.6l-22.2-33.3C794 363.9 688.5 406.8 604.1 408.9c-63.2 1.6-114-19.1-155.3-63.4-2.7-2.9-5.9-6.5-9.3-10.2-27.3-30.6-73.1-81.8-141-95.4-10.9-2.2-22-3.3-33.2-3.3zM265.3 226.6c-63.6 0-128.2 33.9-192.1 100.7l-6.9 7.2 43.3 41.5 6.9-7.2c60.9-63.7 118.8-90.5 172.2-79.8 51.6 10.3 90.3 53.7 113.5 79.7l2.7 3c2.5 2.8 4.9 5.5 7.2 8l0.1 0.1C463 434.3 528 461 605.4 459c45.3-1.1 95.6-12.3 149.4-33.2 58.1-22.5 122.3-57 190.8-102.6l8.3-5.5-33.3-49.9-8.3 5.5C790 354.6 686.2 396.9 603.9 398.9c-60.2 1.5-108.5-18.2-147.7-60.2-1.5-1.6-3.1-3.3-4.8-5.2-1.4-1.6-2.9-3.2-4.4-4.9-28.1-31.5-75.2-84.2-146.5-98.5-11.5-2.3-23.4-3.5-35.2-3.5zM94.6 334c57.7-58 115.1-87.4 170.7-87.4 10.5 0 21 1 31.2 3.1 64.8 13 109.1 62.6 135.5 92.3l0.1 0.1c1.5 1.6 3 3.3 4.4 4.8 1.8 2 3.4 3.8 5 5.4 43.3 46.5 96.6 68.3 162.9 66.6 84.2-2.1 188.7-43.6 310.6-123.5l11.1 16.7c-64.2 42.1-124.2 74-178.6 95.1-51.6 20-99.6 30.8-142.6 31.8-71.4 1.8-131.2-22.7-178-72.9-2.2-2.4-4.6-5.1-7-7.8l-2.7-3c-24.8-27.8-66.3-74.4-124.5-85.9-58.4-11.7-120.1 14.7-183.6 78.4L94.6 334zM341.6 401.6c-37.9 0-68.8 30.9-68.8 68.8s30.9 68.8 68.8 68.8 68.8-30.9 68.8-68.8-30.9-68.8-68.8-68.8z m0 97.6c-15.9 0-28.8-12.9-28.8-28.8s12.9-28.8 28.8-28.8 28.8 12.9 28.8 28.8-12.9 28.8-28.8 28.8zM341.6 391.6c-43.5 0-78.8 35.3-78.8 78.8s35.3 78.8 78.8 78.8 78.8-35.3 78.8-78.8-35.3-78.8-78.8-78.8z m0 137.6c-32.4 0-58.8-26.4-58.8-58.8s26.4-58.8 58.8-58.8 58.8 26.4 58.8 58.8-26.4 58.8-58.8 58.8z m0-97.6c-21.4 0-38.8 17.4-38.8 38.8s17.4 38.8 38.8 38.8 38.8-17.4 38.8-38.8-17.4-38.8-38.8-38.8z m0 57.6c-10.4 0-18.8-8.4-18.8-18.8s8.4-18.8 18.8-18.8 18.8 8.4 18.8 18.8-8.4 18.8-18.8 18.8z"  horiz-adv-x="1024" />

    
    <glyph glyph-name="zhouliu" unicode="&#58895;" d="M336.156308 368.390154c-4.923077 0-8.450462 0.903385-10.584616 2.707692-2.132923 1.805538-3.2 5.088-3.2 9.846154 0 4.267077 1.067077 7.303385 3.2 9.107692 2.134154 1.805538 5.661538 2.707692 10.584616 2.707693h35.692307v6.646153c0 5.251692 1.888 9.107692 5.661539 11.569231h-55.630769c-3.938462 0-6.523077-0.492308-7.753847-1.476923-1.230769-0.984615-1.846154-3.117538-1.846153-6.4v-52.923077c0-15.753846-0.286769-29.825231-0.861539-42.215384-0.573538-12.388923-1.558154-23.630769-2.953846-33.723077-1.394462-10.092308-3.281231-19.240615-5.661538-27.446154a139.769846 139.769846 0 0 0-9.23077-23.630769c-2.625231-5.907692-5.619692-9.723077-8.984615-11.446154-3.363692-1.723077-7.425231-1.6-12.184615 0.369231-4.758154 2.297846-7.630769 5.128615-8.615385 8.492307-0.984615 3.364923-0.163692 8 2.461538 13.907693 3.446154 7.057231 6.276923 14.113231 8.492308 21.16923 2.215385 7.057231 3.980308 14.974769 5.292308 23.753846 1.313231 8.780308 2.215385 18.790154 2.707692 30.03077 0.492308 11.241846 0.738462 24.492308 0.738462 39.753846v62.523077c0 5.580308 0.411077 10.092308 1.230769 13.538461 0.820923 3.446154 2.257231 6.153846 4.307692 8.123077 2.051692 1.969231 4.759385 3.282462 8.123077 3.938462 3.364923 0.657231 7.672615 0.984615 12.923077 0.984615h155.076923c5.088 0 9.313231-0.369231 12.676923-1.107692 3.364923-0.738462 6.072615-2.092308 8.123077-4.061539 2.051692-1.969231 3.488-4.676923 4.307692-8.123077 0.820923-3.446154 1.230769-7.958154 1.23077-13.538461v-171.076923c0-4.594462-0.532923-8.819692-1.6-12.676923-1.065846-3.856-2.912-7.096615-5.538462-9.723077-2.625231-2.625231-6.030769-4.635077-10.215385-6.030769-4.184615-1.394462-9.394462-1.927385-15.630769-1.6-7.056 0.328615-13.127385 0.903385-18.215384 1.723077-5.086769 0.820923-9.271385 1.805538-12.553847 2.953846-5.250462 1.805538-8.286769 4.307692-9.107692 7.507692-0.819692 3.2-0.327385 7.015385 1.476923 11.446154 1.641846 3.938462 3.938462 6.276923 6.892308 7.015384 2.953846 0.738462 7.057231 0.451692 12.307692-0.861538 5.415385-1.476923 9.682462-2.502154 12.8-3.076923 3.118769-0.573538 5.457231-0.696615 7.015385-0.369231 1.559385 0.328615 2.544 1.230769 2.953846 2.707692 0.411077 1.476923 0.615385 3.528615 0.615385 6.153847v155.076923c0 4.267077-0.450462 7.057231-1.353847 8.36923-0.902154 1.313231-3.240615 1.969231-7.015384 1.969231h-57.846154c3.611077-2.132923 5.415385-5.988923 5.415385-11.569231v-6.646153h37.16923c2.461538 0 4.553846-0.081231 6.276923-0.246154 1.723077-0.163692 3.118769-0.656 4.184616-1.476923 1.067077-0.819692 1.846154-2.009846 2.338461-3.569231 0.492308-1.558154 0.738462-3.815385 0.738462-6.769231 0-4.923077-0.984615-8.204308-2.953846-9.846154-1.969231-1.640615-5.496615-2.461538-10.584616-2.461538h-37.16923v-15.261539h42.830769c4.759385 0 8.288-0.942769 10.584615-2.830769 2.297846-1.886769 3.446154-5.127385 3.446154-9.723077 0-3.938462-1.065846-7.015385-3.2-9.230769-2.132923-2.215385-5.661538-3.323077-10.584615-3.323077h-114.953846c-4.923077 0-8.450462 1.107692-10.584616 3.323077-2.132923 2.215385-3.2 5.292308-3.2 9.230769s0.984615 7.015385 2.953846 9.230769c1.969231 2.215385 5.497846 3.323077 10.584616 3.323077h42.092307v15.261539h-35.692307z m116.184615-98.707692c0-5.742769-0.327385-10.338462-0.984615-13.784616-0.656-3.446154-1.927385-6.071385-3.815385-7.876923-1.886769-1.804308-4.594462-2.994462-8.123077-3.569231-3.527385-0.573538-8.246154-0.861538-14.153846-0.861538h-77.046154c-5.579077 0-10.132923 0.288-13.661538 0.861538-3.527385 0.574769-6.317538 1.805538-8.369231 3.692308-2.050462 1.888-3.446154 4.513231-4.184615 7.876923-0.738462 3.364923-1.107692 7.918769-1.107693 13.661539v22.4c0 5.251692 0.369231 9.6 1.107693 13.046153 0.738462 3.446154 2.092308 6.153846 4.061538 8.123077 1.969231 1.969231 4.718769 3.364923 8.246154 4.184616 3.528615 0.820923 8.164923 1.230769 13.907692 1.230769h76.553846c5.907692 0 10.667077-0.409846 14.276923-1.230769 3.611077-0.819692 6.4-2.215385 8.369231-4.184616 1.969231-1.969231 3.282462-4.676923 3.938462-8.123077 0.657231-3.446154 0.984615-7.794462 0.984615-13.046153v-22.4z m-29.538461 15.261538c0 3.446154-0.369231 5.620923-1.107693 6.523077-0.738462 0.903385-2.584615 1.353846-5.538461 1.353846h-59.569231c-2.625231 0-4.307692-0.409846-5.046154-1.230769-0.738462-0.819692-1.107692-3.035077-1.107692-6.646154v-10.338462c0-2.132923 0.328615-3.486769 0.984615-4.061538 0.657231-0.573538 2.380308-0.861538 5.169231-0.861538h59.569231c3.118769 0 5.005538 0.288 5.661538 0.861538 0.657231 0.574769 0.984615 1.928615 0.984616 4.061538v10.338462z m336.796307 85.907692c0-3.773538-1.190154-7.138462-3.569231-10.092307-2.380308-2.953846-6.030769-4.430769-10.953846-4.43077h-195.446154c-5.251692 0-8.944 1.476923-11.076923 4.43077-2.134154 2.953846-3.2 6.318769-3.2 10.092307 0 4.267077 1.065846 7.713231 3.2 10.338462 2.132923 2.626462 5.825231 3.938462 11.076923 3.938461h96.984616c-2.790154 1.313231-5.580308 5.088-8.369231 11.323077a99.585231 99.585231 0 0 1-6.153846 12.184616c-2.297846 3.857231-5.088 8.246154-8.369231 13.16923-2.790154 4.267077-3.446154 8.574769-1.969231 12.923077 1.476923 4.349538 4.430769 7.590154 8.861539 9.723077 3.938462 1.313231 7.465846 1.436308 10.584615 0.369231 3.117538-1.065846 6.563692-4.307692 10.338462-9.723077 2.296615-3.446154 4.635077-7.384615 7.015384-11.815384 2.379077-4.430769 4.553846-8.861538 6.523077-13.292308 3.281231-7.876923 4.142769-13.619692 2.584616-17.230769-1.559385-3.609846-4.882462-6.153846-9.969231-7.63077h87.384615c4.923077 0 8.573538-1.312 10.953846-3.938461 2.379077-2.625231 3.569231-6.071385 3.569231-10.338462z m-6.646154-131.446154c2.296615-4.265846 3.281231-8.246154 2.953847-11.938461-0.328615-3.692308-2.872615-7.015385-7.63077-9.969231-3.774769-2.296615-7.630769-2.871385-11.56923-1.723077-3.938462 1.149538-7.138462 4.349538-9.6 9.6a3966.119385 3966.119385 0 0 1-13.661539 27.076923 1148.551385 1148.551385 0 0 1-13.046154 24.861539 1054.013538 1054.013538 0 0 1-13.169231 23.630769c-4.430769 7.713231-9.107692 15.507692-14.030769 23.384615-1.969231 3.282462-3.036308 6.646154-3.2 10.092308-0.164923 3.446154 1.558154 6.974769 5.169231 10.584615 3.609846 2.790154 7.630769 3.897846 12.061538 3.323077 4.430769-0.573538 8.040615-3.240615 10.83077-8 4.758154-8.040615 9.353846-16 13.784615-23.876923 4.430769-7.876923 8.861538-15.917538 13.292308-24.123077 4.430769-8.204308 8.942769-16.656 13.538461-25.353846a1990.289231 1990.289231 0 0 0 14.276923-27.569231z m-132.676923 83.938462c-4.103385-10.665846-8.082462-20.430769-11.938461-29.292308-3.857231-8.861538-7.836308-17.230769-11.938462-25.107692-4.103385-7.876923-8.492308-15.342769-13.169231-22.4-4.676923-7.056-9.805538-14.112-15.384615-21.169231-4.759385-5.907692-9.313231-9.188923-13.661538-9.846154-4.349538-0.656-8.082462 0.492308-11.2 3.446154-3.282462 3.118769-4.841846 6.688-4.676923 10.707693 0.163692 4.020923 2.379077 8.657231 6.646153 13.907692 4.923077 5.907692 9.517538 12.061538 13.784616 18.461538 4.265846 6.4 8.369231 13.211077 12.307692 20.43077 3.938462 7.220923 7.671385 14.974769 11.2 23.261538 3.527385 8.288 7.015385 17.353846 10.461539 27.2 1.969231 5.415385 4.553846 9.353846 7.753846 11.815385 3.2 2.461538 6.932923 3.118769 11.2 1.96923 5.086769-1.148308 8.409846-3.773538 9.96923-7.876923 1.558154-4.102154 1.107692-9.271385-1.353846-15.507692zM905.846154 817.230769h-78.769231V896h-78.769231v-78.769231H275.692308V896h-78.769231v-78.769231H118.153846C74.704 817.102769 39.512615 781.911385 39.384615 738.461538v-787.692307c0.128-43.449846 35.319385-78.641231 78.769231-78.769231h787.692308c43.449846 0.128 78.641231 35.319385 78.769231 78.769231V738.461538c-0.128 43.449846-35.319385 78.641231-78.769231 78.769231z m0-866.461538H118.153846V659.692308h787.692308v-708.923077z"  horiz-adv-x="1024" />

    
    <glyph glyph-name="money" unicode="&#58881;" d="M512 896C229.76 896 0 666.3679999999999 0 384c0-282.24 229.76-512 512-512s512 229.76 512 512c0 282.368-229.76 512-512 512z m0-969.024C259.968-73.024 54.976 132.03200000000004 54.976 384A457.6 457.6 0 0 0 512 841.088 457.6 457.6 0 0 0 969.024 384c0-251.968-204.992-457.024-457.024-457.024zM635.84 651.84l-81.28-149.824c-21.76-40.576-34.944-67.584-39.808-80.96h-1.408c-14.272 32.512-54.592 109.44-121.024 230.784H315.84l142.208-244.288H341.44v-54.016H478.08v-74.368H341.44v-54.656H478.08v-108.288h67.84v108.288h131.84v54.656H545.92V353.53599999999994h131.84v54.016H564.608l143.616 244.288h-72.32z"  horiz-adv-x="1024" />

    
    <glyph glyph-name="kefu" unicode="&#58988;" d="M884.224 603.136c-5.12 22.016-11.776 43.52-20.992 64.512-19.456 44.544-47.104 84.48-82.432 118.784-35.328 34.304-76.288 61.44-121.856 79.872-47.104 19.456-97.28 29.184-148.992 29.184s-101.376-9.728-148.992-29.184c-45.568-18.944-86.528-45.568-121.856-79.872-35.328-34.304-62.976-74.24-82.432-118.784-9.216-21.504-16.384-43.52-21.504-66.048-78.336-24.064-135.168-98.304-135.168-185.856 0-51.712 19.968-100.352 56.832-137.216 27.136-27.136 60.416-45.056 96.768-52.736 19.968-4.096 38.912 11.264 38.4 31.744l-2.048 264.192c0 82.944 33.28 160.256 93.184 219.136 60.416 58.88 140.8 91.136 225.792 91.136 85.504 0 165.376-32.256 225.792-91.136 59.904-58.368 93.184-136.192 93.184-219.136v-275.456c0-82.944-33.28-160.256-93.184-219.136-30.208-29.184-65.536-52.224-103.424-67.584 4.096 12.8 6.144 27.136 6.144 41.472-1.536 67.072-55.808 121.344-122.368 123.392-71.168 2.048-129.536-55.296-129.536-125.952 0-68.608 55.296-124.928 123.392-125.952H515.072c49.664 0.512 97.792 10.752 142.848 29.184 45.568 18.944 86.528 45.568 121.856 79.872 35.328 34.304 62.976 74.24 82.432 118.784 18.432 41.984 28.16 86.016 30.208 131.584 27.648 9.216 53.248 25.088 74.752 46.592C1004.544 315.904 1024.512 364.544 1024.512 416.256c0 89.088-59.904 164.864-140.288 186.88zM102.912 324.096c-24.576 24.576-38.4 57.344-38.4 91.648 0 48.128 25.088 90.112 62.464 112.64V304.64c-8.704 5.632-16.896 11.776-24.064 19.456z m411.648-388.096h-2.56c-33.792 0.512-61.44 28.16-61.44 61.952 0 34.304 27.648 61.952 61.952 61.952 34.304 0 61.952-27.648 61.952-61.952 0-33.28-26.624-60.928-59.904-61.952z m407.552 388.096c-8.704-8.704-18.432-16.384-29.184-22.016V521.728v9.216c39.936-21.504 67.584-65.024 67.584-115.2 0-34.304-13.824-67.072-38.4-91.648z m0 0"  horiz-adv-x="1024" />

    
    <glyph glyph-name="yijian" unicode="&#58887;" d="M576.901408 492.169014a14.422535 14.422535 0 0 0-10.24 24.662535l216.338029 216.338028a14.422535 14.422535 0 0 0 20.335774-20.335774l-216.338028-216.338028a14.422535 14.422535 0 0 0-10.095775-4.326761zM533.633803 376.788732H360.56338a14.422535 14.422535 0 0 0 0 28.845071h173.070423a14.422535 14.422535 0 0 0 0-28.845071zM613.534648 275.830986H360.56338a14.422535 14.422535 0 0 0 0 28.84507h252.971268a14.422535 14.422535 0 0 0 0-28.84507zM706.704225 174.873239H360.56338a14.422535 14.422535 0 0 0 0 28.845071h346.140845a14.422535 14.422535 0 0 0 0-28.845071zM793.239437 35.695775H245.183099a14.422535 14.422535 0 0 0-14.422536 14.422535V694.084507a14.422535 14.422535 0 0 0 14.422536 14.422535h408.590422a14.422535 14.422535 0 0 0 0-28.84507H259.605634v-615.121127h519.211267V561.829859a14.422535 14.422535 0 0 0 28.845071 0v-511.711549a14.422535 14.422535 0 0 0-14.422535-14.422535z"  horiz-adv-x="1038" />

    
    <glyph glyph-name="youhuijuan" unicode="&#59236;" d="M139.264 19.456c-36.864 0-67.072 30.208-67.072 67.072V235.52c0 8.704 2.048 30.208 22.016 43.008 19.968 6.656 77.312 27.136 77.312 106.496 0 62.976-55.296 95.232-78.848 106.496-18.432 10.24-20.48 19.968-20.48 43.008V683.52c0 36.864 30.208 67.072 67.072 67.072h745.984c36.864 0 67.072-30.208 67.072-67.072v-148.992c0-19.456 0-29.184-20.992-43.008-59.392-31.744-78.336-57.856-78.336-105.984 0-48.128 20.48-76.288 78.336-105.984 16.896-12.8 21.504-19.456 21.504-43.008v-148.992c0-36.864-30.208-67.072-67.072-67.072H139.264z m24.576 696.32c-31.744 0-57.344-25.6-57.344-57.344V519.68l5.12-2.048c56.32-19.968 94.208-73.216 94.208-132.608 0-59.392-37.888-112.64-94.208-132.608l-5.12-2.048v-138.752c0-31.744 25.6-57.344 57.344-57.344h696.32c31.744 0 57.344 25.6 57.344 57.344V250.368l-5.12 2.048c-56.32 19.968-94.208 73.216-94.208 132.608 0 59.392 37.888 112.64 94.208 132.608l5.12 2.048V658.432c0 31.744-25.6 57.344-57.344 57.344H163.84z m335.872-522.24a4.589 4.589 0 0 0-4.608 4.608v94.72H375.296a4.589 4.589 0 0 0-4.608 4.608V322.56a4.589 4.589 0 0 0 4.608 4.608h119.808v65.536H375.296a4.589 4.589 0 0 0-4.608 4.608V422.4a4.589 4.589 0 0 0 4.608 4.608h111.616l-114.176 122.88c-1.536 2.048-1.536 5.12 0 6.656l15.872 17.408c0.512 0.512 1.536 1.024 2.048 1.024 1.024 0 1.536-0.512 2.048-1.024L512 446.464l118.784 127.488c0.512 1.024 1.536 1.024 2.56 1.024s1.536-0.512 2.56-1.024l15.872-17.408c1.536-2.048 1.536-5.12 0-7.168L538.112 427.008h111.616a4.589 4.589 0 0 0 4.608-4.608v-25.088a4.589 4.589 0 0 0-4.608-4.608H529.92v-65.024h119.808a4.589 4.589 0 0 0 4.608-4.608v-25.088a4.589 4.589 0 0 0-4.608-4.608H529.92v-94.72a4.589 4.589 0 0 0-4.608-4.608h-25.6z"  horiz-adv-x="1024" />

    
    <glyph glyph-name="yaoqing" unicode="&#59056;" d="M977.978966-41.845407c0-14.773538-12.341755-24.628658-24.68351-24.628658H83.942219c-14.810106 0-24.68351 12.305187-24.68351 24.628658V391.341059l9.873404-4.936702 434.649192-255.977145c9.873404-4.918418 22.233443-4.918418 32.106848 0l444.54088 260.913847v-433.186466h-2.468351zM93.852192 460.253763v-14.773538l-9.873404 7.386769 9.873404 7.386769z m59.258709 292.91099a38.945094 38.945094 0 0 0 39.530185 39.365628h651.973788a38.945094 38.945094 0 0 0 39.5119-39.383912v-344.581805l-365.498794-214.124882-365.498795 214.106598V753.164753z m802.634622-302.747826l-9.873404-7.386769v14.773538l9.873404-7.386769z m83.978787-2.468351v7.386769c0 2.468351 0 2.468351-2.468351 4.936702 0 0 0 2.450067-2.468351 2.450067 0 2.450067-2.468351 2.450067-2.468351 2.450067l-2.468351 2.468351-83.978787 71.381055V753.146469c0 56.607517-46.916954 100.928131-101.257245 100.928131H577.904973L538.393072 888.521811c-12.360039 9.85512-29.638497 9.85512-39.530185 0l-39.493616-34.447211H195.091153c-56.808642 0-101.257245-46.770681-101.257245-100.928131v-211.674815L9.873404 470.090599l-4.936702-4.918418s0-2.450067-2.468351-2.450067c-2.468351-4.936702-2.468351-4.936702-2.468351-7.386769v-497.180752C0-88.616088 39.511901-128 86.447139-128h869.298384C1002.699045-128 1042.192661-88.616088 1042.192661-41.845407L1039.72431 447.948576z"  horiz-adv-x="1042" />

    
    <glyph glyph-name="fangdajing2" unicode="&#58998;" d="M992.492308-41.353846l-133.907693 133.907692c70.892308 78.769231 110.276923 189.046154 110.276923 307.2 0 259.938462-212.676923 472.615385-472.615384 472.615385s-472.615385-212.676923-472.615385-472.615385 212.676923-472.615385 472.615385-472.615384c118.153846 0 220.553846 39.384615 307.2 110.276923l133.907692-133.907693 55.138462 55.138462z m-882.215385 433.230769c0 220.553846 173.292308 393.846154 393.846154 393.846154s393.846154-173.292308 393.846154-393.846154-173.292308-393.846154-393.846154-393.846154-393.846154 181.169231-393.846154 393.846154z"  horiz-adv-x="1024" />

    
    <glyph glyph-name="fangdajing3" unicode="&#58905;" d="M757.915152 728.694949C600.436364 886.173737 344.953535 886.173737 187.345455 728.694949c-157.608081-157.478788-157.478788-412.961616 0-570.440404C338.747475 6.852525 580.525253 0.905051 738.909091 140.541414L916.945455-37.494949l36.589899 36.589898-177.907071 177.777778c139.636364 158.513131 133.688889 400.290909-17.713131 551.822222z m40.597979-417.745454c-17.713131-43.571717-43.70101-82.747475-77.317171-116.234343-33.616162-33.616162-72.662626-59.60404-116.234344-77.317172-42.149495-17.066667-86.626263-25.729293-132.395959-25.729293-45.769697 0-90.246465 8.662626-132.39596 25.729293-43.571717 17.713131-82.747475 43.70101-116.234343 77.317172-33.486869 33.616162-59.60404 72.662626-77.317172 116.234343C129.551515 353.09899 120.888889 397.575758 120.888889 443.345455c0 45.769697 8.662626 90.246465 25.729293 132.395959 17.713131 43.571717 43.70101 82.747475 77.317172 116.234344 33.616162 33.486869 72.662626 59.60404 116.234343 77.317171 42.149495 17.066667 86.626263 25.729293 132.39596 25.729293 45.769697 0 90.246465-8.662626 132.395959-25.729293 43.571717-17.713131 82.747475-43.70101 116.234344-77.317171 33.616162-33.616162 59.60404-72.662626 77.317171-116.234344 17.066667-42.149495 25.729293-86.626263 25.729293-132.395959 0.129293-45.640404-8.662626-90.246465-25.729293-132.39596z m0 0"  horiz-adv-x="1024" />

    
    <glyph glyph-name="kefu1" unicode="&#58965;" d="M222.272 534.024a20.688 20.688 0 0 0-20.712 19.824l-0.216 9.696C201.344 715.992 340.976 840 512.624 840c171.696 0 311.304-124.008 311.304-276.456l-0.168-7.248a21.936 21.936 0 0 0-21.36-21.144c-11.424 0.312-20.52 8.736-20.16 20.16l0.192 8.232c0 129.6-121.032 235.056-269.784 235.056-148.752 0-269.784-105.456-269.784-235.056l0.168-7.944a20.688 20.688 0 0 0-19.896-21.528c-0.24-0.048-0.528-0.048-0.864-0.048zM595.52 27.192000000000007a20.736 20.736 0 0 0-2.568 41.28c76.032 9.744 147.48 71.592 169.8 147.024a20.856 20.856 0 0 0 25.776 14.016c10.992-3.24 17.28-14.76 14.04-25.728-27.192-91.92-111.24-164.448-204.336-176.376a14.808 14.808 0 0 0-2.712-0.216zM512.6-72a103.728 103.728 0 0 0-103.728 103.512 103.728 103.728 0 0 0 103.728 103.512c57.24 0 103.8-46.416 103.8-103.512 0-57.12-46.56-103.512-103.8-103.512z m0 165.6a62.232 62.232 0 0 1-62.208-62.088 62.256 62.256 0 0 1 124.512 0 62.256 62.256 0 0 1-62.304 62.112z m-227.952 85.512H232.232C135.056 179.11199999999997 56 262.55999999999995 56 365.03999999999996c0 102.48 79.032 185.856 176.184 185.904h52.464c11.472 0 20.76-9.264 20.76-20.712v-330.384a20.688 20.688 0 0 0-20.76-20.712zM232.232 509.52c-74.304 0-134.736-64.848-134.736-144.504 0-79.68 60.432-144.48 134.688-144.48h31.728v288.96h-31.68z m559.824-310.872h-52.32a20.736 20.736 0 0 0-20.76 20.712V550.512c0 11.424 9.288 20.688 20.736 20.688h52.32C889.04 571.2 968 487.608 968 384.888c0.048-102.672-78.912-186.24-175.92-186.24z m-31.536 41.4h31.584c74.136 0 134.424 64.968 134.424 144.888s-60.288 144.864-134.424 144.912h-31.584v-289.8z"  horiz-adv-x="1024" />

    
    <glyph glyph-name="hongbaofuliliquanliwuxianxing" unicode="&#59949;" d="M457.472 298.666667l-50.915556 50.915555a28.444444 28.444444 0 1 0 40.220445 40.220445l65.792-65.763556 65.792 65.763556a28.444444 28.444444 0 0 0 40.220444-40.220445L567.665778 298.666667H603.022222a28.444444 28.444444 0 0 0 0-56.888889H540.444444v-34.133334h62.577778a28.444444 28.444444 0 0 0 0-56.888888H540.444444v-39.822223a28.444444 28.444444 0 0 0-56.888888 0v39.822223h-62.577778a28.444444 28.444444 0 0 0 0 56.888888H483.555556V241.777778h-62.577778a28.444444 28.444444 0 0 0 0 56.888889h36.494222zM824.888889 652.657778V753.777778H199.111111v-101.12l288.056889-139.662222a56.888889 56.888889 0 0 1 49.664 0L824.888889 652.629333z m0-63.232l-263.253333-127.630222a113.777778 113.777778 0 0 0-99.271112 0L199.111111 589.425778V14.222222h625.777778V589.425778zM199.111111 810.666667h625.777778a56.888889 56.888889 0 0 0 56.888889-56.888889v-739.555556a56.888889 56.888889 0 0 0-56.888889-56.888889H199.111111a56.888889 56.888889 0 0 0-56.888889 56.888889V753.777778a56.888889 56.888889 0 0 0 56.888889 56.888889z"  horiz-adv-x="1024" />

    
    <glyph glyph-name="baozheng1" unicode="&#58934;" d="M487.262316 449.050947l-104.55579 104.528842a26.947368 26.947368 0 0 0 38.130527 38.103579l105.472-105.472 105.498947 105.472a26.947368 26.947368 0 0 0 38.103579-38.103579l-104.528842-104.528842h121.667368a26.947368 26.947368 0 1 0 0-53.894736h-134.736842v-80.842106h134.736842a26.947368 26.947368 0 1 0 0-53.894737h-134.736842v-107.789473a26.947368 26.947368 0 1 0-53.894737 0v107.789473h-134.736842a26.947368 26.947368 0 1 0 0 53.894737h134.736842v80.842106h-134.736842a26.947368 26.947368 0 1 0 0 53.894736h123.580632z m420.917895 377.856c15.36-2.802526 36.028632-6.736842 44.085894-8.326736 21.638737-4.365474 31.258947-31.070316 31.312842-55.673264v-470.312421a221.103158 221.103158 0 0 0-24.926315-99.974737 445.574737 445.574737 0 0 0-61.978948-91.162947 662.258526 662.258526 0 0 0-86.069895-82.081684 934.588632 934.588632 0 0 0-97.17221-68.311579 761.182316 761.182316 0 0 0-96.309895-50.122105c-26.947368-11.937684-54.945684-21.261474-84.37221-27.836632-4.715789-0.727579-9.458526-1.077895-14.228211-1.077895a82.189474 82.189474 0 0 0-14.012631 1.104842 474.731789 474.731789 0 0 0-85.854316 27.917474 830.383158 830.383158 0 0 0-98.842948 50.014316 938.469053 938.469053 0 0 0-100.352 68.311579 689.178947 689.178947 0 0 0-88.710736 81.973895 447.703579 447.703579 0 0 0-64.323369 91.109052A215.013053 215.013053 0 0 0 40.421053 292.729263V762.906947C40.421053 791.605895 56.481684 815.427368 77.797053 818.795789A1499.297684 1499.297684 0 0 1 125.574737 827.014737l353.010526 66.371368c11.479579 1.886316 23.093895 2.748632 34.708211 2.586948a195.098947 195.098947 0 0 0 33.765052-2.586948l361.094737-66.479158z m21.39621-69.982315a40.744421 40.744421 0 0 1-1.805474 12.422736l-36.405894 6.925474L538.570105 841.566316a149.827368 149.827368 0 0 1-25.330526 1.886316 151.767579 151.767579 0 0 1-26.085053-1.994106L142.120421 776.407579c-14.686316-2.802526-33.953684-6.144-45.271579-7.922526a24.683789 24.683789 0 0 1-2.640842-11.560421v-462.767158a168.151579 168.151579 0 0 1 20.264421-77.797053 396.503579 396.503579 0 0 1 56.589474-80.572632 632.481684 632.481684 0 0 1 81.111579-75.398736 873.849263 873.849263 0 0 1 93.399579-64.053895 769.077895 769.077895 0 0 1 91.405473-46.618947c24.360421-10.644211 49.583158-18.970947 75.452632-24.845474a47.319579 47.319579 0 0 1 12.449684 0.053895 409.330526 409.330526 0 0 1 73.108211 24.764631 698.475789 698.475789 0 0 1 88.629894 46.430316 870.885053 870.885053 0 0 1 90.408421 64.053895 606.208 606.208 0 0 1 78.416843 75.317894 394.24 394.24 0 0 1 54.784 80.572632 173.999158 173.999158 0 0 1 19.34821 78.147368V756.951579z m-700.631579-299.385264a26.947368 26.947368 0 1 0-53.894737 0V673.549474a26.947368 26.947368 0 0 0 21.935158 26.462315l178.822737 33.792a26.947368 26.947368 0 0 0 10.024421-52.951578l-156.887579-29.642106v-193.724631z"  horiz-adv-x="1024" />

    
    <glyph glyph-name="huiyuan1" unicode="&#58919;" d="M950.5 555.9L848.9 734.6c-13.1 23-38.6 37.4-66.4 37.4H241.3c-27.8 0-53.3-14.4-66.4-37.4L73.4 555.9c-13.1-23.1-11.5-51.2 4.2-72.9l341.8-472.1c44.4-61.3 140.7-61.3 185.1 0l46.4 64.1 82.6 114L852 352.7l74.2 102.5 20 27.7c15.8 21.7 17.4 49.8 4.3 73z m-248-226.5L568.7 144.6c-13-17.9-34.2-28.6-56.7-28.6-22.6 0-43.8 10.7-56.7 28.6L321.4 329.4c-11.6 16.1-8 38.5 8 50.1 16.1 11.6 38.5 8 50.1-8L512 188.6l132.4 182.9c11.6 16.1 34.1 19.6 50.1 8 16.1-11.6 19.7-34 8-50.1z"  horiz-adv-x="1024" />

    
    <glyph glyph-name="shang1" unicode="&#58882;" d="M83.56375615 169.81659731000002c22.62369604-21.20971504 57.26623061-20.50272455 78.47594566 2.12097149L512 538.15864852l349.96029819-366.22107972c21.20971504-21.91670555 56.55924012-23.33068654 78.47594566-2.12097149 21.91670555 21.20971504 23.33068654 56.55924012 2.1209715 78.47594565l-390.25875677 408.6405098c-10.60485751 11.31184801-24.74466755 16.96777203-40.29845858 16.96777204s-29.69360106-6.36291451-40.29845858-16.96777204l-390.25875677-408.6405098c-21.20971504-21.91670555-20.50272455-57.26623061 2.1209715-78.47594565z"  horiz-adv-x="1024" />

    
    <glyph glyph-name="wangyiyanxuan2" unicode="&#58963;" d="M467.5584 455.2704c-0.512 10.1376-2.9696 15.0528-7.8848 15.0528-11.264-1.7408-41.6768-7.3728-91.3408-17.5104-17.408-1.4336-35.0208-3.9936-52.9408-7.168 0.7168 11.8784 1.4336 22.2208 1.7408 31.5392 3.8912 1.7408 10.5472 3.9936 19.3536 7.3728 30.1056 11.3664 49.9712 19.456 59.4944 24.1664 10.5472 3.6864 18.3296 7.168 23.552 10.3424 7.5776 2.7648 11.4688 6.656 11.4688 11.5712 0 1.7408-1.7408 3.1744-4.9152 4.9152-3.6864 1.9456-7.0656 4.7104-10.24 7.8848-8.0896 4.4032-12.4928 7.3728-13.2096 9.1136h-2.9696c-11.264-14.5408-38.5024-33.0752-81.8176-55.7056 1.4336 31.0272 2.6624 51.3024 3.6864 60.7232 0 3.1744-1.024 5.9392-2.9696 7.8848-8.0896 0-14.9504 0.7168-20.5824 2.4576 16.896 1.7408 35.5328 3.1744 56.1152 4.9152 21.2992 1.7408 41.8816 2.9696 61.952 4.1984 4.9152-1.2288 8.8064-1.7408 11.9808-1.7408 0.7168 0 1.2288 1.4336 1.2288 4.1984-1.2288 4.9152-2.1504 10.6496-2.9696 17.5104-0.512 9.4208-1.9456 13.824-4.9152 13.824-3.8912 0-26.0096-3.1744-66.1504-9.6256-39.6288-6.144-72.4992-10.8544-98.7136-14.5408-23.7568-4.9152-58.2656-8.6016-103.6288-11.5712-14.9504-1.7408-28.672-3.1744-41.3696-4.9152H79.872c0-3.1744 1.024-6.656 2.9696-10.3424 1.2288-4.9152 2.6624-11.0592 4.1984-18.7392 0.7168-5.2224 2.2528-7.8848 4.1984-7.8848 3.6864 0 21.0944 4.1984 52.4288 12.8 15.6672 2.6624 30.8224 5.2224 45.7728 6.656 0.512-1.4336 0.7168-2.9696 1.2288-4.1984 1.2288-13.312 2.2528-26.4192 2.9696-39.424l-6.656 5.4272c-26.9312-12.8-48.0256-22.9376-63.1808-29.5936-20.5824-8.0896-32.0512-12.0832-35.0208-12.0832-1.2288-1.2288-3.3792-1.7408-6.656-1.7408l-1.2288-2.4576c1.4336-1.7408 4.1984-3.9936 7.8848-7.3728 3.6864-5.2224 6.8608-9.4208 9.5232-12.8 1.2288-1.7408 2.4576-2.9696 3.6864-4.1984h4.9152c7.5776 0 23.7568 8.9088 48.7424 26.624 13.9264 11.3664 26.7264 23.1424 37.9904 35.7376 1.7408-25.3952 2.4576-51.3024 2.4576-77.7216-21.504-1.7408-25.4976-1.4336-51.2-4.7104-19.5584-2.6624-34.5088-4.1984-44.544-4.1984-16.1792-1.7408-31.3344-2.4576-45.7728-2.4576l-1.2288-2.4576c1.7408-3.6864 3.8912-9.4208 6.656-17.5104 4.4032-11.3664 7.3728-16.9984 9.0112-16.9984 4.4032 0 12.6976 1.7408 24.7808 5.4272 10.0352 3.1744 27.136 7.168 51.712 11.5712 25.7024 4.9152 34.304 7.3728 65.6384 12.5952 62.976 9.4208 132.3008 15.5648 207.6672 18.7392 28.8768 0 47.0016-0.7168 54.8864-2.4576 1.2288 0 1.7408 0.7168 1.7408 2.4576-3.4816 6.4512-5.9392 15.36-7.8848 26.4192m-180.0192-14.0288c-7.0656 0-14.9504-0.7168-22.7328-2.4576-12.4928-1.7408-26.2144-3.1744-40.8576-4.9152v96.1536c-0.512 8.3968-0.512 14.336-0.512 17.5104 0 2.6624-1.4336 4.9152-4.1984 6.656-2.9696 0-6.3488 0.7168-10.752 2.4576 13.9264 1.4336 27.648 3.1744 40.8576 4.9152 11.776 1.9456 24.4736 3.9936 38.5024 5.4272v-125.7472h-0.3072z m-128.1024-72.2944c-1.9456 2.2528-3.3792 2.6624-4.9152 4.4032-5.632 5.632-11.264 7.68-13.0048 12.5952l-4.4032-0.7168c-0.7168-3.1744-1.2288-5.4272-1.7408-7.168-2.4576-9.8304-2.6624-12.5952-22.7328-60.928-11.4688-25.3952-23.2448-48.3328-35.0208-68.8128-24.4736-40.1408-49.9712-70.5536-76.1856-91.2384-0.512-1.4336 1.024-2.7648 4.1984-3.4816 24.2688-0.7168 48.2304 16.4864 75.1616 48.5376 40.448 48.128 75.4688 129.2288 77.1072 132.1984 5.4272 8.6016 11.0592 16.7936 12.4928 23.1424 0.2048 1.2288 0.2048 1.7408-0.2048 1.9456-3.6864 4.8128-5.3248 4.608-10.752 9.5232m630.3744 4.4032c-3.8912 2.4576-6.656 4.7104-9.3184 6.8608-1.7408 1.4336-3.3792 1.9456-4.608 2.7648-2.6624 1.7408-6.144 3.4816-8.8064 3.4816-1.2288 0-1.9456-4.1984-1.9456-4.1984 0-5.632 0-17.3056-11.4688-43.9296-7.0656-16.7936-13.2096-22.9376-22.016-31.8464-18.6368-19.2512-31.8464-20.992-56.1152-35.2256 0-2.9696 1.7408-4.4032 5.4272-4.4032 26.9312 1.4336 47.0016 3.9936 61.952 15.7696 17.1008 14.0288 25.7024 23.9616 38.912 53.76 11.264 19.7632 13.9264 25.9072 13.9264 29.5936-0.3072 2.7648-2.2528 5.2224-5.9392 7.3728m198.656-87.7568c-4.1984 17.3056-7.5776 33.0752-10.0352 47.3088-1.2288 1.2288-2.4576 1.9456-3.3792 1.9456-0.7168-18.5344-1.7408-35.0208-2.9696-49.3568-0.7168-10.1376-2.4576-17.7152-5.4272-23.4496-1.9456-2.7648-6.3488-4.4032-13.0048-5.9392-7.0656-2.2528-20.3776-3.4816-39.6288-3.4816-37.9904 1.2288-57.5488 13.5168-58.5728 36.4544 2.2528 32.768 6.3488 63.3856 11.9808 91.5456-1.024 1.2288-1.7408 1.9456-2.4576 1.9456-7.0656 2.4576-13.9264 4.4032-20.5824 5.632-3.6864 0.512-3.6864 1.4336-6.3488 1.4336-1.4336 0-3.8912-1.4336-3.1744-4.7104 0.512-4.7104 0.7168-8.0896 0.7168-14.0288-2.9696-49.3568-4.4032-79.1552-4.4032-89.8048 0-34.816 34.816-52.0192 104.5504-52.0192 41.8816 0 62.976 4.4032 62.976 13.1072-0.9216 8.6016-4.3008 22.9376-10.24 43.4176m-92.5696 121.5488c20.0704 1.2288 39.2192 0.7168 57.5488 2.4576 3.8912-1.7408 7.3728-2.4576 10.0352-2.4576 1.024 0 1.4336 1.4336 1.4336 4.4032-1.2288 3.4816-2.2528 9.8304-2.9696 15.0528-0.2048 9.1136-1.7408 13.5168-4.4032 13.5168-3.4816 0-23.9616-2.4576-61.0304-7.3728-26.2144-2.9696-54.1696-4.7104-73.728-5.9392 0.7168 27.3408 1.4336 51.3024 2.4576 73.728 13.2096 1.024 33.9968 2.4576 52.1216 3.9936 12.288 1.2288 23.9616 1.9456 35.2256 1.9456 3.8912 0 7.3728-1.7408 10.0352-1.2288 1.4336 0.2048 1.2288 1.9456 1.024 3.1744-1.2288 4.1984-2.1504 8.9088-2.9696 14.0288-0.2048 7.3728-1.7408 12.0832-3.8912 13.5168-2.1504 0-14.9504-2.6624-38.1952-8.3968-18.3296-2.6624-39.2192-4.7104-52.4288-6.8608 0.7168 17.7152 1.2288 30.8224 1.4336 39.0144 0.7168 6.144 1.4336 14.0288 2.4576 23.4496 1.7408 3.4816 2.6624 8.9088 2.9696 15.5648-0.7168 1.2288-1.7408 2.6624-3.4816 3.9936-1.7408 0-4.1984 0.7168-7.8848 1.9456-13.2096 2.2528-21.504 3.9936-25.1904 5.4272l-1.4336-1.9456c2.2528-9.1136 3.8912-25.9072 5.4272-50.0736 0-14.336-0.2048-27.8528-0.512-40.96-11.4688-1.2288-12.4928-3.1744-29.184-4.9152-8.8064-1.2288-16.384-1.9456-23.552-3.1744h-0.512c3.3792 8.0896 6.3488 14.5408 8.2944 19.456 3.1744 8.0896 5.632 13.5168 7.3728 16.0768 2.9696 3.4816 4.4032 5.9392 4.4032 7.3728 0 2.6624-2.4576 3.9936-7.3728 3.9936-5.8368 2.9696-10.752 5.632-14.4384 8.3968-7.8848 3.6864-12.288 5.9392-13.5168 7.3728-0.7168 0-1.4336-0.7168-2.4576-1.9456 1.024-2.2528 1.4336-4.7104 1.4336-7.3728 0-16.9984-4.9152-39.0144-14.9504-66.3552-2.6624-11.5712-13.9264-31.8464-33.792-60.416 0-1.2288 1.2288-1.9456 3.8912-1.9456h5.8368c6.3488 2.6624 18.8416 16.7936 37.2736 42.9056 1.9456 3.9936 3.8912 7.68 5.8368 11.0592 0.7168-3.4816 1.7408-5.4272 2.9696-5.4272 1.9456 0 11.776 1.7408 29.9008 6.656 16.384 2.7648 18.3296 5.4272 33.0752 8.0896v-72.8064c-21.504-2.6624-38.5024-5.632-79.36-7.8848-13.5168-1.2288-21.8112-1.4336-34.0992-2.2528-17.1008-1.024-26.7264-0.7168-29.184-1.9456 0-1.7408 0.7168-4.4032 1.9456-8.3968 1.024-2.7648 2.2528-6.8608 3.8912-13.1072 0.7168-5.4272 1.7408-8.3968 3.3792-8.3968 3.3792 0 14.9504 2.6624 43.6224 8.3968 18.1248 2.6624 30.6176 3.6864 39.2192 4.9152 8.6016 1.2288 16.896 1.7408 23.2448 2.4576 12.288 1.2288 20.3776 2.7648 31.6416 3.9936 9.1136 1.3312 71.2704 5.2224 91.136 5.2224M598.528 555.4176c9.5232 16.2816 13.5168 25.6 14.2336 36.0448l4.4032 2.2528c4.1984-2.2528 5.8368-3.6864 13.9264-5.4272 5.8368-1.2288 10.5472-1.9456 13.9264-2.6624 3.8912-0.7168 6.3488-1.9456 7.3728-3.9936 1.4336-3.1744 0.7168-6.4512-2.9696-9.6256-8.0896-10.3424-18.1248-20.6848-30.4128-31.8464-11.0592-10.3424-24.7808-21.1968-40.6528-32.768-2.6624 1.024-5.4272 2.2528-7.8848 3.6864 7.0656 9.5232 16.384 24.064 28.0576 44.3392M795.4432 224.1536c-21.504 4.1984-71.0656 12.8-78.336 14.5408-45.7728 9.4208-74.4448 15.0528-94.5152 18.5344 3.8912 3.1744 16.384 21.504 22.7328 29.7984 7.5776 9.4208 11.4688 17.3056 11.4688 24.1664 0 6.144-5.12 12.288-15.6672 18.7392-7.0656 5.2224-15.6672 11.5712-25.1904 19.456-10.752 6.8608-16.1792 11.8784-16.1792 15.0528 0 4.4032 3.3792 11.5712 10.24 21.7088 1.9456 4.1984 7.8848 15.7696 7.8848 15.7696 14.2336 28.8768 27.4432 44.8512 33.792 49.5616 1.9456 0 2.9696 1.024 2.9696 3.4816 0 1.2288-4.608 6.144-14.4384 14.5408-7.5776 7.68-12.4928 12.0832-14.4384 13.5168h-2.9696c-1.4336-2.4576-2.4576-5.2224-3.6864-7.8848-36.0448-5.4272-19.1488-2.9696-52.4288-7.168-21.0944-2.6624-11.776-1.4336-31.1296-1.2288-2.6624 0-3.8912-1.2288-3.8912-3.9936 1.9456-4.1984 3.8912-8.3968 6.144-12.288 2.4576-7.8848 4.1984-11.5712 5.12-11.8784 2.6624-0.7168 7.8848 2.6624 37.4784 7.168 20.7872 3.1744 24.7808 3.4816 30.4128 3.4816-6.144-19.2512-15.1552-30.8224-22.7328-47.8208 0 0-6.3488-15.0528-11.9808-21.9136-11.776-6.4512-12.6976-14.336-12.6976-18.7392 0-5.2224 3.8912-9.4208 11.9808-12.8 7.5776-3.1744 11.776-6.656 19.8656-12.5952 10.0352-8.3968 22.3232-16.7936 28.16-31.3344 0-5.4272-7.3728-15.5648-16.1792-25.6-1.9456-2.2528-9.8304-11.0592-12.4928-13.5168-4.4032-3.9936-9.3184-7.3728-11.9808-9.1136-16.1792-9.4208-26.2144-18.7392-40.6528-20.48-3.1744-1.9456-4.9152-4.7104-4.9152-7.8848 6.8608-6.8608 9.3184-9.8304 16.6912-19.968 5.12-10.3424 8.8064-16.0768 11.9808-16.0768 2.6624 0 7.3728 3.9936 13.9264 11.5712 19.3536 24.6784 24.7808 30.3104 31.6416 30.3104 10.5472 0 66.6624-10.6496 168.5504-32.0512 37.2736-8.192 51.712-10.8544 87.2448-24.3712 27.136-10.8544 45.2608-16.2816 54.1696-16.2816 7.3728 1.7408 15.1552 3.9936 23.9616 6.656 7.5776 1.7408 18.3296 4.9152 32.5632 9.6256 28.3648 10.1376 42.5984 15.7696 42.5984 16.9984 2.4576 1.7408 3.6864 3.9936 3.6864 7.3728-49.9712 1.9456-85.1968 0.2048-148.1728 8.3968-31.5392 4.4032-52.3264 9.4208-80.5888 14.5408"  horiz-adv-x="1024" />

    
    <glyph glyph-name="dingdanguanli-" unicode="&#58883;" d="M826.3802209-83.19440578000001H197.6197791C125.88892084-83.19440578000001 67.02843186-27.851817770000025 67.02843186 40.79015184000002V727.20984816c0 68.64196964 58.60308158 123.81295271 130.59134724 123.8129527h111.54320064v-51.48147721h-111.54320064c-43.58765071 0-79.10987001-32.43333065-79.10986999-72.33147549v-686.41969632c0-39.89814483 35.43641682-72.33147549 79.10986999-72.33147549h628.84624427c43.58765071 0 79.10987001 32.43333065 79.10987 72.33147549V727.20984816c0 39.89814483-35.43641682 72.33147549-79.10987 72.33147549h-103.992584v51.48147721h103.90678153C898.11107916 851.19440578 956.97156814 795.85181777 956.97156814 727.20984816v-686.41969632c0-68.64196964-58.86048895-123.98455764-130.59134724-123.98455762zM598.91789404 799.71292858H437.35185803a25.7407386 25.7407386 0 1 0 0 51.4814772h161.56603601a25.7407386 25.7407386 0 0 0 0-51.4814772zM769.40738611 512.7036930300001H276.4722417a25.7407386 25.7407386 0 0 0 0 51.48147725H769.40738611a25.7407386 25.7407386 0 0 0 0-51.48147725zM769.40738611 343.67284285000005H276.4722417a25.7407386 25.7407386 0 1 0 0 51.48147721H769.40738611a25.7407386 25.7407386 0 1 0 0-51.48147721zM769.40738611 174.72779508999997H276.4722417a25.7407386 25.7407386 0 0 0 0 51.48147722H769.40738611a25.7407386 25.7407386 0 0 0 0-51.48147722z"  horiz-adv-x="1024" />

    
    <glyph glyph-name="iconfontyoujiantou-copy" unicode="&#58890;" d="M267.354606 823.994036c-13.515828-12.812817-13.515828-33.603329 0-46.417169l414.889265-393.579937-414.889265-393.565611c-13.515828-12.821003-13.515828-33.604352 0-46.425356 13.508665-12.81998 35.418674-12.81998 48.927339 0l432.159604 410.009118c0 0 18.33867 16.991999 18.33867 29.981848 0 11.971659-18.33867 29.989011-18.33867 29.989011L316.282968 823.994036C302.77328 836.815039 280.863271 836.815039 267.354606 823.994036z"  horiz-adv-x="1024" />

    
    <glyph glyph-name="left" unicode="&#58884;" d="M651.429 370.96500000000003l-248.432-248.432c-3.976-3.976-9.467-6.434-15.534-6.434-12.13300001 0-21.97 9.836-21.97000001 21.97 0 6.067 2.459 11.558 6.434 15.534l235.40100001 235.401-227.844 227.885c-3.627 3.751-5.861 8.86699999-5.86 14.506 0 11.53099999 9.349 20.881 20.88099999 20.881 5.63700001 0 10.754-2.235 14.51200001-5.867l236.231-236.231c2.857-2.906 4.858-6.665 5.59-10.857-0.453 2.922 0.173 3.298 0.593 2.673 3.964-3.973 6.413-9.457 6.414-15.515 0-6.056-2.452-11.542-6.414-15.515z"  horiz-adv-x="1024" />

    
    <glyph glyph-name="hometv" unicode="&#58917;" d="M601.25056 862.549333C580.77056 883.136 552.61056 896 524.45056 896c-30.72 0-58.858667-12.864-76.778667-33.450667L38.17856 438.016c-33.28-36.010667-28.16-61.738667-25.6-69.461333 5.12-12.864 17.92-25.728 46.08-25.728h58.88c12.8 0 25.578667-10.282667 25.578667-25.728v-326.741334c0-56.618667 38.4-118.357333 104.938666-118.357333h107.498667c15.36 0 25.6 10.282667 25.6 25.728V291.370667h278.976v-393.642667c0-15.445333 10.24-25.728 25.6-25.728h107.498667c64 0 104.96 61.738667 104.96 118.357333V317.098667c0 15.445333-10.24 25.728-25.6 25.728s-25.6-10.282667-25.6-25.728v-326.741334c0-33.450667-20.48-66.901333-53.76-66.901333h-81.92V296.533333c0 25.749333-20.48 46.314667-46.058667 46.314667H378.573227c-25.6 0-46.08-20.565333-46.08-46.293333v-373.077334h-81.898667c-33.28 0-53.76 33.450667-53.76 66.901334V317.098667c0 41.173333-33.28 77.184-76.778667 77.184h-53.76c2.56 2.581333 5.12 5.162667 7.68 10.304l406.976 424.533333c10.24 10.282667 25.6 15.424 40.96 15.424s30.72-5.141333 40.96-15.445333l406.933334-424.533334c10.24-10.282667 25.6-10.282667 35.84 0a24.96 24.96 0 0 1 0 36.053334L601.25056 862.528z"  horiz-adv-x="1024" />

    
    <glyph glyph-name="zhouliuyiqipin" unicode="&#58929;" d=""  horiz-adv-x="1024" />

    
    <glyph glyph-name="qicheqianlian-1" unicode="&#58891;" d="M908.629333 152.23466699999994H257.877333c-19.285333 0-37.376 7.509333-50.858666 21.162666-13.482667 13.653333-20.992 31.573333-20.821334 50.858667l2.389334 479.232c0 19.114667-6.656 31.914667-39.765334 37.205333h-0.170666l-95.573334 16.384c-9.216 1.536-15.530667 10.410667-13.994666 19.626667 1.536 9.216 10.410667 15.530667 19.626666 13.994667l95.402667-16.384c45.397333-7.168 68.437333-31.061333 68.437333-70.997334L220.16 223.914667c0-10.069333 3.754667-19.456 10.922667-26.453334 7.168-7.168 16.554667-11.093333 26.624-11.093333h650.752c9.386667 0 17.066667-7.68 17.066666-17.066667s-7.509333-17.066667-16.896-17.066666zM859.989333 250.19733299999996l-602.624 1.877334c-18.944 0.170667-36.693333 7.509333-50.005333 20.992-13.312 13.482667-20.48 31.232-20.48 50.176l1.877333 353.962666L870.570667 626.346667c30.890667-1.194667 55.125333-26.282667 55.125333-57.173334V315.733333c0-36.181333-29.525333-65.536-65.706667-65.536zM257.706667 286.20799999999997l602.453333-1.877333c17.408 0 31.573333 14.165333 31.573333 31.402666V569.173333c0 12.458667-9.898667 22.698667-22.357333 23.04h-0.682667l-645.632 48.128-1.536-317.44c0-9.728 3.754667-18.944 10.581334-25.941333 6.485333-6.826667 15.701333-10.752 25.6-10.752zM324.096 95.91466700000001m-63.658667 0a63.658667 63.658667 0 1 1 127.317334 0 63.658667 63.658667 0 1 1-127.317334 0ZM324.096 15.189333000000033c-44.544 0-80.725333 36.181333-80.725333 80.725334s36.181333 80.725333 80.725333 80.725333c44.544 0 80.725333-36.181333 80.725333-80.725333s-36.181333-80.725333-80.725333-80.725334z m0 127.317334c-25.770667 0-46.592-20.821333-46.592-46.592s20.821333-46.592 46.592-46.592 46.592 20.821333 46.592 46.592-20.821333 46.592-46.592 46.592zM812.714667 95.91466700000001m-63.658667 0a63.658667 63.658667 0 1 1 127.317333 0 63.658667 63.658667 0 1 1-127.317333 0ZM812.714667 15.189333000000033c-44.544 0-80.725333 36.181333-80.725334 80.725334s36.181333 80.725333 80.725334 80.725333 80.725333-36.181333 80.725333-80.725333-36.181333-80.725333-80.725333-80.725334z m0 127.317334c-25.770667 0-46.592-20.821333-46.592-46.592s20.821333-46.592 46.592-46.592 46.592 20.821333 46.592 46.592-20.821333 46.592-46.592 46.592zM710.314667 478.037333H362.496c-9.386667 0-17.066667 7.68-17.066667 17.066667s7.68 17.066667 17.066667 17.066667h347.818667c9.386667 0 17.066667-7.68 17.066666-17.066667s-7.68-17.066667-17.066666-17.066667zM710.314667 379.904H362.496c-9.386667 0-17.066667 7.68-17.066667 17.066667s7.68 17.066667 17.066667 17.066666h347.818667c9.386667 0 17.066667-7.68 17.066666-17.066666s-7.68-17.066667-17.066666-17.066667z"  horiz-adv-x="1024" />

    
    <glyph glyph-name="fangdajing1" unicode="&#59023;" d="M878.1312 48.6912L666.624 271.0016c37.1712 48.776533 59.528533 109.431467 59.528533 175.342933 0 159.982933-130.1504 290.133333-290.133333 290.133334s-290.133333-130.1504-290.133333-290.133334 130.1504-290.133333 290.133333-290.133333c72.533333 0 138.752 26.9312 189.661867 71.082667l209.476266-220.177067 42.973867 41.5744z m-442.129067 175.786667c-122.333867 0-221.866667 99.5328-221.866666 221.866666s99.5328 221.866667 221.866666 221.866667 221.866667-99.5328 221.866667-221.866667-99.515733-221.866667-221.866667-221.866666z"  horiz-adv-x="1024" />

    
    <glyph glyph-name="youxiangou" unicode="&#58885;" d="M849.066667-51.200000000000045H174.933333c-53.333333 0-96 38.4-96 87.466667l21.333334 507.733333c0 46.933333 42.666667 85.333333 96 85.333333h631.466666c53.333333 0 96-38.4 96-87.466666l21.333334-505.6c0-51.2-42.666667-87.466667-96-87.466667zM196.266667 573.866667c-23.466667 0-42.666667-14.933333-42.666667-34.133334l-21.333333-507.733333c0-17.066667 19.2-32 42.666666-32h674.133334c23.466667 0 42.666667 14.933333 42.666666 34.133333l-21.333333 505.6c0 19.2-19.2 34.133333-42.666667 34.133334H196.266667zM550.4 106.66666699999996h-53.333333V375.46666700000003l-44.8-44.8-38.4 38.4 89.6 89.6c8.533333 8.533333 19.2 10.666667 29.866666 6.4 10.666667-4.266667 17.066667-12.8 17.066667-25.6V106.66666699999996zM774.4 535.4666669999999h-53.333333C721.066667 706.133333 608 768 512 768s-209.066667-59.733333-209.066667-232.533333h-53.333333c0 196.266667 132.266667 285.866667 262.4 285.866666s262.4-89.6 262.4-285.866666z"  horiz-adv-x="1024" />

    
    <glyph glyph-name="gouwuche1" unicode="&#58886;" d="M347.136 112.63999999999999q19.456 0 36.864-7.168t30.72-19.968 20.48-30.208 7.168-36.864-7.168-36.864-20.48-30.208-30.72-20.48-36.864-7.68q-20.48 0-37.376 7.68t-30.208 20.48-20.48 30.208-7.168 36.864 7.168 36.864 20.48 30.208 30.208 19.968 37.376 7.168zM773.12 110.59199999999998q19.456 0 37.376-7.168t30.72-19.968 20.48-30.208 7.68-36.864-7.68-36.864-20.48-30.208-30.72-20.48-37.376-7.68-36.864 7.68-30.208 20.48-20.48 30.208-7.68 36.864 7.68 36.864 20.48 30.208 30.208 19.968 36.864 7.168zM945.152 692.2239999999999q28.672 0 44.544-7.68t22.528-18.944 6.144-24.064-3.584-22.016-12.8-37.888-22.016-62.976-24.064-68.096-17.92-53.248q-13.312-40.96-33.792-56.832t-50.176-15.872l-34.816 0-66.56 0-87.04 0-95.232 0-253.952 0 15.36-92.16 516.096 0q49.152 0 49.152-41.984 0-20.48-9.728-35.328t-38.4-14.848l-49.152 0-95.232 0-117.76 0-119.808 0-98.304 0-56.32 0q-20.48 0-34.304 9.216t-23.04 24.064-14.848 32.256-8.704 32.768q-1.024 6.144-5.632 29.696t-11.264 58.88-14.848 78.848-16.384 87.552q-19.456 103.424-44.032 230.4l-76.8 0q-15.36 0-25.6 7.68t-16.896 18.432-9.216 23.04-2.56 22.528q0 20.48 13.824 33.792t37.376 13.312l22.528 0 20.48 0 25.6 0 34.816 0q20.48 0 32.768-6.144t19.456-15.36 10.24-19.456 5.12-17.408q2.048-8.192 4.096-23.04t4.096-30.208q3.072-18.432 6.144-38.912l700.416 0z"  horiz-adv-x="1024" />

    
    <glyph glyph-name="tubiaozhizuomoban" unicode="&#58888;" d="M616.98705383 381.46578964c81.29700347 35.85871013 140.32794864 113.01319111 149.90753186 206.73776199h-0.12945384c0.12945383 0.9061768 0.25890765 1.81235358 0.25890765 2.84798418 0 9.32067555-7.63777581 16.95845136-16.95845135 16.95845137-9.19122173 0-16.6995437-7.37886815-16.95845135-16.44063605-12.03920592-117.28516741-113.53100642-204.53704691-233.14634272-197.2876326-107.31722272 6.60214518-196.25200197 93.20675555-205.57267755 200.26507061-10.48576 120.26260543 76.11885037 224.60239013 193.27456397 238.45394964h0.64726913c9.32067555 0 16.95845136 7.63777581 16.95845135 16.95845136 0 9.32067555-7.63777581 16.95845136-16.95845135 16.95845136-1.29453827 0-2.45962272-0.12945383-3.62470716-0.38836149v0.38836149c-136.44433383-15.53445925-237.28886518-137.35051061-224.08457482-277.41955161 8.67340642-91.91221728 67.96325925-170.23178272 148.87190124-207.12612345-208.03230025-45.17938569-365.96596939-226.15583605-376.06336791-445.06225779-0.51781531-12.16865975 9.5795832-22.3955121 21.8776968-22.39551209 11.78029827 0 21.10097383 9.45012939 21.61878913 21.23042766 11.13302914 229.90999703 201.68906272 413.60497778 434.31759012 413.60497777s423.18456098-183.69498075 434.31759014-413.60497777c0.51781531-11.78029827 9.83849086-21.23042765 21.61878913-21.23042766 12.29811358 0 22.3955121 10.09739852 21.87769679 22.39551209-10.22685235 217.48242963-166.08926025 397.5527032-372.05029926 444.15608099zM547.7292563 854.36062026m-16.95845136 0a16.95845136 16.95845136 0 1 1 33.91690271 0 16.95845136 16.95845136 0 1 1-33.91690271 0ZM751.7484879 650.47084248m-16.95845137 0a16.95845136 16.95845136 0 1 1 33.91690272 0 16.95845136 16.95845136 0 1 1-33.91690272 0ZM596.92171061 835.4603615c55.7945995-22.65441975 100.06780839-67.57489778 122.07495902-123.62840494 3.23634569-8.02613728 12.42756741-12.03920592 20.71261234-9.45012938 9.45012939 2.97743803 14.36937482 13.46319803 10.61521384 22.78387357-25.37295013 63.95019061-75.98939653 115.21390617-139.68067951 141.4930331-9.19122173 3.75416098-19.80643555-0.9061768-22.91332741-10.35630619-2.71853037-8.41449876 1.03563061-17.6057205 9.19122172-20.84206616z"  horiz-adv-x="1024" />

    
    <glyph glyph-name="yemian" unicode="&#58889;" d="M562.805 815.3025a72.135 72.135 0 0 1-96.93 0L73.925 443.13a36.1575 36.1575 0 0 1 48.42-53.7075l6.2325 5.91750001V6.899999989999969a72.315 72.315 0 0 1 72.315-72.40499999h210.4425v217.71a50.9175 50.9175 0 0 0 50.94 50.985h99.0225a50.9175 50.9175 0 0 0 50.94-50.985v-217.71h215.4375a72.315 72.315 0 0 1 72.3375 72.40500001V390.5925c16.065-14.535 38.8575-13.4325 52.2225 1.4625a36.1575 36.1575 0 0 1-2.61 51.075L562.805 815.28z"  horiz-adv-x="1024" />

    
    <glyph glyph-name="choutigui" unicode="&#59076;" d="M883.5 687.4v23.2c0 25.7-20.8 46.5-46.5 46.5H186.5c-25.7 0-46.5-20.8-46.5-46.5v-23.2c0-17.4 9.7-32.4 23.9-40.4-0.3-2-0.6-4-0.6-6.1v-209.1c0-2.1 0.3-4.1 0.6-6.1-14.2-8-23.9-23-23.9-40.4v-23.2c0-17.4 9.7-32.4 23.9-40.4-0.3-2-0.6-4-0.6-6.1v-209.1c0-25.7 20.8-46.5 46.5-46.5v-23.2c0-25.7 20.8-46.5 46.5-46.5h23.2c25.7 0 46.5 20.8 46.5 46.5V60h371.7v-23.2c0-25.7 20.8-46.5 46.5-46.5h23.2c25.7 0 46.5 20.8 46.5 46.5V60c25.7 0 46.5 20.8 46.5 46.5V315.6c0 2.1-0.3 4.1-0.6 6.1 14.2 8 23.9 23 23.9 40.4v23.2c0 17.4-9.7 32.4-23.9 40.4 0.3 2 0.6 4 0.6 6.1V640.9c0 2.1-0.3 4.1-0.6 6.1 14 8 23.7 23 23.7 40.4zM279.4 36.8h-23.2V60h23.2v-23.2z m-69.7 69.7V315.6h534.4v-209.1H209.7z m557.6-69.7h-23.2V60h23.2v-23.2z m46.5 69.7h-46.5V315.6h46.5v-209.1zM837 362.1H186.5v23.2H837v-23.2z m-23.2 278.8v-209.1h-46.5V640.9h46.5z m-69.7-209.1H209.7V640.9h534.4v-209.1zM837 687.4H186.5v23.2H837v-23.2zM465.3 571.2h92.9v-46.5h-92.9zM465.3 245.9h92.9v-46.5h-92.9z"  horiz-adv-x="1024" />

    
    <glyph glyph-name="qicheqianlian-11" unicode="&#58892;" d="M908.629 152.235H257.877c-19.2853 0-37.376 7.50933-50.8587 21.1627-13.4827 13.6533-20.992 31.5733-20.8213 50.8587l2.38933 479.232c0 19.1147-6.656 31.9147-39.7653 37.2053h-0.170666l-95.5733 16.384c-9.216 1.536-15.5307 10.4107-13.9947 19.6267 1.536 9.216 10.4107 15.5307 19.6267 13.9947l95.4027-16.384c45.3973-7.168 68.4373-31.0613 68.4373-70.9973L220.16 223.91499999999996c0-10.0693 3.75467-19.456 10.9227-26.4533 7.168-7.168 16.5547-11.0933 26.624-11.0933h650.752c9.38667 0 17.0667-7.68 17.0667-17.0667s-7.50933-17.0667-16.896-17.0667ZM859.989 250.197l-602.624 1.87733c-18.944 0.170667-36.6933 7.50933-50.0053 20.992-13.312 13.4827-20.48 31.232-20.48 50.176l1.87733 353.963L870.571 626.347c30.8907-1.19467 55.1253-26.2827 55.1253-57.1733V315.73299999999995c0-36.1813-29.5253-65.536-65.7067-65.536ZM257.707 286.20799999999997l602.453-1.87733c17.408 0 31.5733 14.1653 31.5733 31.4027V569.173c0 12.4587-9.89867 22.6987-22.3573 23.04h-0.682667l-645.632 48.128-1.536-317.44c0-9.728 3.75467-18.944 10.5813-25.9413 6.48533-6.82667 15.7013-10.752 25.6-10.752ZM324.096 95.91499999999996m-63.6587 0a63.6587 63.6587 0 1 1 127.317 0 63.6587 63.6587 0 1 1-127.317 0ZM324.096 15.188999999999965c-44.544 0-80.7253 36.1813-80.7253 80.7253s36.1813 80.7253 80.7253 80.7253c44.544 0 80.7253-36.1813 80.7253-80.7253s-36.1813-80.7253-80.7253-80.7253Zm0 127.317c-25.7707 0-46.592-20.8213-46.592-46.592s20.8213-46.592 46.592-46.592 46.592 20.8213 46.592 46.592-20.8213 46.592-46.592 46.592ZM812.715 95.91499999999996m-63.6587 0a63.6587 63.6587 0 1 1 127.317 0 63.6587 63.6587 0 1 1-127.317 0ZM812.715 15.188999999999965c-44.544 0-80.7253 36.1813-80.7253 80.7253s36.1813 80.7253 80.7253 80.7253 80.7253-36.1813 80.7253-80.7253-36.1813-80.7253-80.7253-80.7253Zm0 127.317c-25.7707 0-46.592-20.8213-46.592-46.592s20.8213-46.592 46.592-46.592 46.592 20.8213 46.592 46.592-20.8213 46.592-46.592 46.592ZM710.315 478.037H362.496c-9.38667 0-17.0667 7.68-17.0667 17.0667s7.68 17.0667 17.0667 17.0667h347.819c9.38667 0 17.0667-7.68 17.0667-17.0667s-7.68-17.0667-17.0667-17.0667ZM710.315 379.904H362.496c-9.38667 0-17.0667 7.68-17.0667 17.0667s7.68 17.0667 17.0667 17.0667h347.819c9.38667 0 17.0667-7.68 17.0667-17.0667s-7.68-17.0667-17.0667-17.0667Z"  horiz-adv-x="1024" />

    


  </font>
</defs>
</svg>
